%TF.GenerationSoftware,KiCad,Pcbnew,(6.0.0)*%
%TF.CreationDate,2022-07-19T18:14:29+12:00*%
%TF.ProjectId,MOTOR_TERMINAL_BREAKOUT_25,4d4f544f-525f-4544-9552-4d494e414c5f,0A*%
%TF.SameCoordinates,Original*%
%TF.FileFunction,Copper,L1,Top*%
%TF.FilePolarity,Positive*%
%FSLAX46Y46*%
G04 Gerber Fmt 4.6, Leading zero omitted, Abs format (unit mm)*
G04 Created by KiCad (PCBNEW (6.0.0)) date 2022-07-19 18:14:29*
%MOMM*%
%LPD*%
G01*
G04 APERTURE LIST*
G04 Aperture macros list*
%AMRoundRect*
0 Rectangle with rounded corners*
0 $1 Rounding radius*
0 $2 $3 $4 $5 $6 $7 $8 $9 X,Y pos of 4 corners*
0 Add a 4 corners polygon primitive as box body*
4,1,4,$2,$3,$4,$5,$6,$7,$8,$9,$2,$3,0*
0 Add four circle primitives for the rounded corners*
1,1,$1+$1,$2,$3*
1,1,$1+$1,$4,$5*
1,1,$1+$1,$6,$7*
1,1,$1+$1,$8,$9*
0 Add four rect primitives between the rounded corners*
20,1,$1+$1,$2,$3,$4,$5,0*
20,1,$1+$1,$4,$5,$6,$7,0*
20,1,$1+$1,$6,$7,$8,$9,0*
20,1,$1+$1,$8,$9,$2,$3,0*%
G04 Aperture macros list end*
%TA.AperFunction,ComponentPad*%
%ADD10O,3.600000X2.100000*%
%TD*%
%TA.AperFunction,ComponentPad*%
%ADD11O,2.100000X3.600000*%
%TD*%
%TA.AperFunction,ComponentPad*%
%ADD12C,3.600000*%
%TD*%
%TA.AperFunction,ConnectorPad*%
%ADD13C,5.700000*%
%TD*%
%TA.AperFunction,SMDPad,CuDef*%
%ADD14RoundRect,0.225000X-0.250000X0.225000X-0.250000X-0.225000X0.250000X-0.225000X0.250000X0.225000X0*%
%TD*%
%TA.AperFunction,ViaPad*%
%ADD15C,0.650000*%
%TD*%
%TA.AperFunction,Conductor*%
%ADD16C,2.000000*%
%TD*%
G04 APERTURE END LIST*
D10*
%TO.P,H5,1,1*%
%TO.N,+BATT*%
X211000000Y-150000000D03*
%TD*%
%TO.P,H12,1,1*%
%TO.N,GND*%
X229000000Y-150000000D03*
%TD*%
D11*
%TO.P,H3,1,1*%
%TO.N,+BATT*%
X220000000Y-141000000D03*
%TD*%
%TO.P,H6,1,1*%
%TO.N,GND*%
X220000000Y-159000000D03*
%TD*%
D12*
%TO.P,H1,1,1*%
%TO.N,+BATT*%
X205500000Y-143000000D03*
D13*
X205500000Y-143000000D03*
%TD*%
D12*
%TO.P,H2,1,1*%
%TO.N,GND*%
X205500000Y-157000000D03*
D13*
X205500000Y-157000000D03*
%TD*%
D14*
%TO.P,C1,1*%
%TO.N,+BATT*%
X215000000Y-149225000D03*
%TO.P,C1,2*%
%TO.N,GND*%
X215000000Y-150775000D03*
%TD*%
D15*
%TO.N,GND*%
X203750000Y-155250000D03*
X202900000Y-159600000D03*
X215000000Y-151750000D03*
X205500000Y-159500000D03*
X203750000Y-158750000D03*
X207000000Y-155000000D03*
X203000000Y-157000000D03*
X205500000Y-154500000D03*
X202900000Y-154400000D03*
X207000000Y-159000000D03*
X214000000Y-150750000D03*
X208000000Y-157000000D03*
X216000000Y-150750000D03*
%TO.N,+BATT*%
X203750000Y-141250000D03*
X207250000Y-141250000D03*
X208000000Y-143000000D03*
X205500000Y-145500000D03*
X207250000Y-144750000D03*
X202900000Y-140400000D03*
X203000000Y-143000000D03*
X214000000Y-149250000D03*
X216000000Y-149250000D03*
X205500000Y-140500000D03*
X215000000Y-148250000D03*
X203750000Y-144750000D03*
X202900000Y-145600000D03*
%TD*%
D16*
%TO.N,GND*%
X222500000Y-159000000D02*
X220000000Y-159000000D01*
X229000000Y-152500000D02*
X222500000Y-159000000D01*
X205500000Y-157000000D02*
X218000000Y-157000000D01*
X218000000Y-157000000D02*
X220000000Y-159000000D01*
X229000000Y-150000000D02*
X229000000Y-152500000D01*
%TO.N,+BATT*%
X211050000Y-143000000D02*
X217950000Y-143000000D01*
X211000000Y-143100000D02*
X210900000Y-143000000D01*
X211000000Y-150000000D02*
X211000000Y-143100000D01*
X210900000Y-143000000D02*
X205500000Y-143000000D01*
X218000000Y-143000000D02*
X220100000Y-140900000D01*
%TD*%
%TA.AperFunction,Conductor*%
%TO.N,GND*%
G36*
X208958845Y-150120002D02*
G01*
X209005338Y-150173658D01*
X209015810Y-150210855D01*
X209021883Y-150261044D01*
X209087519Y-150474400D01*
X209090095Y-150479390D01*
X209090095Y-150479391D01*
X209139685Y-150575469D01*
X209189901Y-150672759D01*
X209193310Y-150677201D01*
X209193312Y-150677205D01*
X209279975Y-150790146D01*
X209325790Y-150849854D01*
X209490893Y-151000086D01*
X209679990Y-151118707D01*
X209818517Y-151174394D01*
X209842963Y-151184221D01*
X209887105Y-151201966D01*
X209892593Y-151203103D01*
X209892598Y-151203104D01*
X210042896Y-151234229D01*
X210105690Y-151247233D01*
X210110303Y-151247499D01*
X210160526Y-151250395D01*
X210160530Y-151250395D01*
X210162349Y-151250500D01*
X211806630Y-151250500D01*
X211809417Y-151250251D01*
X211809423Y-151250251D01*
X211878997Y-151244041D01*
X211972339Y-151235711D01*
X211977753Y-151234230D01*
X211977758Y-151234229D01*
X212148805Y-151187435D01*
X212187651Y-151176808D01*
X212192709Y-151174396D01*
X212192713Y-151174394D01*
X212309462Y-151118707D01*
X212389129Y-151080708D01*
X212570405Y-150950448D01*
X212725749Y-150790146D01*
X212850250Y-150604868D01*
X212939974Y-150400471D01*
X212941282Y-150395023D01*
X212941284Y-150395017D01*
X212988923Y-150196586D01*
X213024275Y-150135016D01*
X213087302Y-150102334D01*
X213111442Y-150100000D01*
X216380018Y-150100000D01*
X216448139Y-150120002D01*
X216494632Y-150173658D01*
X216505620Y-150216002D01*
X216525326Y-150463621D01*
X216525946Y-150466916D01*
X216525946Y-150466919D01*
X216587486Y-150794174D01*
X216594266Y-150830229D01*
X216701773Y-151187435D01*
X216703076Y-151190527D01*
X216703077Y-151190530D01*
X216728348Y-151250500D01*
X216846629Y-151531195D01*
X216848248Y-151534122D01*
X216848252Y-151534130D01*
X216948617Y-151715565D01*
X217027195Y-151857615D01*
X217029122Y-151860362D01*
X217177055Y-152071241D01*
X217241424Y-152163000D01*
X217486893Y-152443890D01*
X217760820Y-152697106D01*
X217763518Y-152699114D01*
X217763520Y-152699115D01*
X217969448Y-152852329D01*
X218060104Y-152919779D01*
X218062990Y-152921483D01*
X218062997Y-152921487D01*
X218378464Y-153107682D01*
X218378469Y-153107684D01*
X218381355Y-153109388D01*
X218384408Y-153110776D01*
X218717889Y-153262401D01*
X218717895Y-153262403D01*
X218720936Y-153263786D01*
X218724109Y-153264839D01*
X218724113Y-153264840D01*
X218784300Y-153284803D01*
X219075001Y-153381225D01*
X219078261Y-153381933D01*
X219078269Y-153381935D01*
X219278545Y-153425419D01*
X219439542Y-153460375D01*
X219810428Y-153500338D01*
X219812953Y-153500406D01*
X219812963Y-153500407D01*
X219814716Y-153500454D01*
X219816414Y-153500500D01*
X220093239Y-153500500D01*
X220094905Y-153500411D01*
X220094914Y-153500411D01*
X220369173Y-153485798D01*
X220369182Y-153485797D01*
X220372505Y-153485620D01*
X220611413Y-153447139D01*
X220737490Y-153426832D01*
X220737493Y-153426831D01*
X220740792Y-153426300D01*
X220744022Y-153425420D01*
X220744024Y-153425419D01*
X221097445Y-153329066D01*
X221097446Y-153329066D01*
X221100691Y-153328181D01*
X221448124Y-153192372D01*
X221611159Y-153107682D01*
X221776189Y-153021956D01*
X221776192Y-153021954D01*
X221779159Y-153020413D01*
X222090047Y-152814251D01*
X222158694Y-152757361D01*
X222374683Y-152578362D01*
X222374689Y-152578357D01*
X222377267Y-152576220D01*
X222482625Y-152468067D01*
X222635227Y-152311417D01*
X222635235Y-152311408D01*
X222637566Y-152309015D01*
X222867998Y-152015663D01*
X223055884Y-151715565D01*
X223064170Y-151702330D01*
X223064172Y-151702327D01*
X223065951Y-151699485D01*
X223229186Y-151364062D01*
X223230319Y-151360923D01*
X223230323Y-151360914D01*
X223354717Y-151016338D01*
X223355853Y-151013192D01*
X223356649Y-151009940D01*
X223443722Y-150654102D01*
X223443723Y-150654098D01*
X223444518Y-150650848D01*
X223494176Y-150281135D01*
X223495760Y-150222591D01*
X223517597Y-150155037D01*
X223572491Y-150110013D01*
X223621714Y-150100000D01*
X232104758Y-150100000D01*
X232172879Y-150120002D01*
X232219372Y-150173658D01*
X232230708Y-150229551D01*
X232217764Y-150688624D01*
X232217364Y-150695716D01*
X232159476Y-151378620D01*
X232158677Y-151385677D01*
X232069696Y-152012821D01*
X232062400Y-152064240D01*
X232061204Y-152071241D01*
X231926848Y-152743280D01*
X231925260Y-152750203D01*
X231753245Y-153413625D01*
X231751269Y-153420447D01*
X231542152Y-154073102D01*
X231539795Y-154079803D01*
X231294225Y-154719661D01*
X231291494Y-154726217D01*
X231010270Y-155351198D01*
X231007174Y-155357591D01*
X230691172Y-155965750D01*
X230687721Y-155971957D01*
X230337958Y-156561337D01*
X230334179Y-156567315D01*
X230066550Y-156965336D01*
X229951743Y-157136077D01*
X229947615Y-157141857D01*
X229533756Y-157688141D01*
X229529309Y-157693679D01*
X229085330Y-158215772D01*
X229080578Y-158221051D01*
X228607892Y-158717290D01*
X228602851Y-158722293D01*
X228102924Y-159191138D01*
X228097608Y-159195848D01*
X227572090Y-159635751D01*
X227566517Y-159640155D01*
X227017037Y-160049754D01*
X227011231Y-160053833D01*
X226439524Y-160431833D01*
X226433511Y-160435570D01*
X226170396Y-160588962D01*
X225841410Y-160780756D01*
X225835176Y-160784158D01*
X225224610Y-161095410D01*
X225218194Y-161098457D01*
X224591009Y-161374833D01*
X224584431Y-161377512D01*
X223942701Y-161618098D01*
X223936009Y-161620394D01*
X223445640Y-161773322D01*
X223281729Y-161824440D01*
X223274893Y-161826363D01*
X222610133Y-161993225D01*
X222603230Y-161994751D01*
X222316583Y-162049746D01*
X221930142Y-162123886D01*
X221923132Y-162125027D01*
X221758429Y-162147092D01*
X221243848Y-162216029D01*
X221236820Y-162216770D01*
X220553445Y-162269355D01*
X220546378Y-162269698D01*
X220203763Y-162276695D01*
X219861163Y-162283691D01*
X219854061Y-162283636D01*
X219169138Y-162258997D01*
X219162050Y-162258541D01*
X218479632Y-162195350D01*
X218472581Y-162194496D01*
X217794796Y-162092951D01*
X217787804Y-162091701D01*
X217116832Y-161952129D01*
X217109922Y-161950488D01*
X216447848Y-161773322D01*
X216441042Y-161771293D01*
X215790021Y-161557108D01*
X215783339Y-161554699D01*
X215145417Y-161304169D01*
X215138882Y-161301387D01*
X214964835Y-161221439D01*
X214516092Y-161015310D01*
X214509752Y-161012179D01*
X213904030Y-160691443D01*
X213897881Y-160687961D01*
X213339302Y-160350580D01*
X213332036Y-160344818D01*
X213321177Y-160337807D01*
X213311269Y-160327655D01*
X213299837Y-160323495D01*
X213299375Y-160323162D01*
X213299311Y-160323125D01*
X213298785Y-160322903D01*
X213289285Y-160315306D01*
X213264375Y-160309578D01*
X213249534Y-160305189D01*
X213225523Y-160296451D01*
X213196231Y-160299376D01*
X213183713Y-160300000D01*
X202326000Y-160300000D01*
X202257879Y-160279998D01*
X202211386Y-160226342D01*
X202200000Y-160174000D01*
X202200000Y-153826000D01*
X202220002Y-153757879D01*
X202273658Y-153711386D01*
X202326000Y-153700000D01*
X206696189Y-153700000D01*
X206724638Y-153703254D01*
X206732785Y-153705142D01*
X206733501Y-153705143D01*
X206740431Y-153703562D01*
X206745122Y-153703037D01*
X206749081Y-153702657D01*
X206919964Y-153688980D01*
X206924987Y-153688578D01*
X207031440Y-153662573D01*
X207106714Y-153644184D01*
X207106716Y-153644183D01*
X207111597Y-153642991D01*
X207288581Y-153568303D01*
X207451433Y-153466415D01*
X207455211Y-153463109D01*
X207455217Y-153463105D01*
X207550004Y-153380172D01*
X207596006Y-153339923D01*
X207718619Y-153192045D01*
X207816151Y-153026549D01*
X207886118Y-152847646D01*
X207893344Y-152814251D01*
X207925675Y-152664810D01*
X207926739Y-152659892D01*
X207936980Y-152468067D01*
X207936446Y-152463068D01*
X207936446Y-152463062D01*
X207919994Y-152309015D01*
X207918360Y-152293717D01*
X207917965Y-152289270D01*
X207917740Y-152286100D01*
X207917867Y-152285517D01*
X207917655Y-152284131D01*
X207917930Y-152277529D01*
X207917865Y-152277179D01*
X207917865Y-152277177D01*
X207917864Y-152277175D01*
X207917799Y-152276825D01*
X207914944Y-152270266D01*
X207912849Y-152263422D01*
X207913138Y-152263334D01*
X207906881Y-152242116D01*
X207894289Y-152165538D01*
X207820294Y-151715549D01*
X207819479Y-151709755D01*
X207798599Y-151531195D01*
X207753644Y-151146770D01*
X207753098Y-151140929D01*
X207713538Y-150575469D01*
X207713265Y-150569609D01*
X207705949Y-150255482D01*
X207705331Y-150228933D01*
X207723742Y-150160366D01*
X207776300Y-150112636D01*
X207831297Y-150100000D01*
X208890724Y-150100000D01*
X208958845Y-150120002D01*
G37*
%TD.AperFunction*%
%TD*%
%TA.AperFunction,Conductor*%
%TO.N,+BATT*%
G36*
X220203764Y-137723305D02*
G01*
X220546378Y-137730302D01*
X220553445Y-137730645D01*
X221236820Y-137783230D01*
X221243848Y-137783971D01*
X221726028Y-137848567D01*
X221923132Y-137874973D01*
X221930142Y-137876114D01*
X222234652Y-137934535D01*
X222603230Y-138005249D01*
X222610133Y-138006775D01*
X223274892Y-138173637D01*
X223281728Y-138175560D01*
X223936009Y-138379606D01*
X223942701Y-138381902D01*
X224168274Y-138466470D01*
X224584431Y-138622488D01*
X224591009Y-138625167D01*
X225218194Y-138901543D01*
X225224610Y-138904590D01*
X225835176Y-139215842D01*
X225841410Y-139219244D01*
X226433511Y-139564430D01*
X226439524Y-139568167D01*
X226829484Y-139826000D01*
X227011225Y-139946163D01*
X227017037Y-139950246D01*
X227566517Y-140359845D01*
X227572090Y-140364249D01*
X228097608Y-140804152D01*
X228102924Y-140808862D01*
X228602851Y-141277707D01*
X228607892Y-141282710D01*
X229080578Y-141778949D01*
X229085330Y-141784228D01*
X229529309Y-142306321D01*
X229533756Y-142311859D01*
X229947615Y-142858143D01*
X229951743Y-142863923D01*
X230334179Y-143432685D01*
X230337958Y-143438663D01*
X230571341Y-143831933D01*
X230687721Y-144028043D01*
X230691172Y-144034250D01*
X231007174Y-144642409D01*
X231010270Y-144648802D01*
X231291494Y-145273783D01*
X231294225Y-145280339D01*
X231539795Y-145920197D01*
X231542152Y-145926898D01*
X231751269Y-146579553D01*
X231753245Y-146586375D01*
X231925260Y-147249797D01*
X231926848Y-147256720D01*
X232061204Y-147928759D01*
X232062399Y-147935756D01*
X232091327Y-148139638D01*
X232158677Y-148614323D01*
X232159476Y-148621380D01*
X232217364Y-149304284D01*
X232217764Y-149311376D01*
X232230708Y-149770449D01*
X232212634Y-149839106D01*
X232160310Y-149887093D01*
X232104758Y-149900000D01*
X231109276Y-149900000D01*
X231041155Y-149879998D01*
X230994662Y-149826342D01*
X230984190Y-149789145D01*
X230978117Y-149738956D01*
X230912481Y-149525600D01*
X230861825Y-149427456D01*
X230812672Y-149332226D01*
X230810099Y-149327241D01*
X230806690Y-149322799D01*
X230806688Y-149322795D01*
X230677620Y-149154590D01*
X230674210Y-149150146D01*
X230509107Y-148999914D01*
X230320010Y-148881293D01*
X230163009Y-148818179D01*
X230118097Y-148800125D01*
X230118095Y-148800124D01*
X230112895Y-148798034D01*
X230107407Y-148796897D01*
X230107402Y-148796896D01*
X229942845Y-148762818D01*
X229894310Y-148752767D01*
X229889697Y-148752501D01*
X229839474Y-148749605D01*
X229839470Y-148749605D01*
X229837651Y-148749500D01*
X228193370Y-148749500D01*
X228190583Y-148749749D01*
X228190577Y-148749749D01*
X228121003Y-148755959D01*
X228027661Y-148764289D01*
X228022247Y-148765770D01*
X228022242Y-148765771D01*
X227908470Y-148796896D01*
X227812349Y-148823192D01*
X227807291Y-148825604D01*
X227807287Y-148825606D01*
X227737127Y-148859071D01*
X227610871Y-148919292D01*
X227429595Y-149049552D01*
X227274251Y-149209854D01*
X227149750Y-149395132D01*
X227060026Y-149599529D01*
X227058718Y-149604977D01*
X227058716Y-149604983D01*
X227011077Y-149803414D01*
X226975725Y-149864984D01*
X226912698Y-149897666D01*
X226888558Y-149900000D01*
X223619982Y-149900000D01*
X223551861Y-149879998D01*
X223505368Y-149826342D01*
X223494380Y-149783998D01*
X223474674Y-149536379D01*
X223472647Y-149525600D01*
X223406352Y-149173055D01*
X223406350Y-149173047D01*
X223405734Y-149169771D01*
X223298227Y-148812565D01*
X223271697Y-148749605D01*
X223214690Y-148614323D01*
X223153371Y-148468805D01*
X223151752Y-148465878D01*
X223151748Y-148465870D01*
X222974429Y-148145320D01*
X222974425Y-148145314D01*
X222972805Y-148142385D01*
X222825395Y-147932251D01*
X222760511Y-147839758D01*
X222760509Y-147839755D01*
X222758576Y-147837000D01*
X222513107Y-147556110D01*
X222239180Y-147302894D01*
X222085952Y-147188889D01*
X221942595Y-147082229D01*
X221942594Y-147082228D01*
X221939896Y-147080221D01*
X221937010Y-147078517D01*
X221937003Y-147078513D01*
X221621536Y-146892318D01*
X221621531Y-146892316D01*
X221618645Y-146890612D01*
X221439538Y-146809177D01*
X221282111Y-146737599D01*
X221282105Y-146737597D01*
X221279064Y-146736214D01*
X221275891Y-146735161D01*
X221275887Y-146735160D01*
X221169777Y-146699965D01*
X220924999Y-146618775D01*
X220921739Y-146618067D01*
X220921731Y-146618065D01*
X220683559Y-146566353D01*
X220560458Y-146539625D01*
X220189572Y-146499662D01*
X220187047Y-146499594D01*
X220187037Y-146499593D01*
X220185284Y-146499546D01*
X220183586Y-146499500D01*
X219906761Y-146499500D01*
X219905095Y-146499589D01*
X219905086Y-146499589D01*
X219630827Y-146514202D01*
X219630818Y-146514203D01*
X219627495Y-146514380D01*
X219434604Y-146545449D01*
X219262510Y-146573168D01*
X219262507Y-146573169D01*
X219259208Y-146573700D01*
X219255978Y-146574580D01*
X219255976Y-146574581D01*
X219090011Y-146619828D01*
X218899309Y-146671819D01*
X218551876Y-146807628D01*
X218548894Y-146809177D01*
X218240995Y-146969118D01*
X218220841Y-146979587D01*
X217909953Y-147185749D01*
X217907377Y-147187884D01*
X217625317Y-147421638D01*
X217625311Y-147421643D01*
X217622733Y-147423780D01*
X217620389Y-147426187D01*
X217620386Y-147426189D01*
X217364773Y-147688583D01*
X217364765Y-147688592D01*
X217362434Y-147690985D01*
X217132002Y-147984337D01*
X217130223Y-147987179D01*
X216942303Y-148287332D01*
X216934049Y-148300515D01*
X216770814Y-148635938D01*
X216769681Y-148639077D01*
X216769677Y-148639086D01*
X216728299Y-148753704D01*
X216644147Y-148986808D01*
X216643352Y-148990056D01*
X216643351Y-148990060D01*
X216560844Y-149327241D01*
X216555482Y-149349152D01*
X216505824Y-149718865D01*
X216504240Y-149777408D01*
X216482403Y-149844963D01*
X216427509Y-149889987D01*
X216378286Y-149900000D01*
X207831297Y-149900000D01*
X207763176Y-149879998D01*
X207716683Y-149826342D01*
X207705331Y-149771066D01*
X207705346Y-149770449D01*
X207709446Y-149594388D01*
X207713265Y-149430391D01*
X207713538Y-149424531D01*
X207753098Y-148859071D01*
X207753644Y-148853230D01*
X207780756Y-148621380D01*
X207819480Y-148290236D01*
X207820296Y-148284436D01*
X207829058Y-148231156D01*
X207906789Y-147758446D01*
X207913064Y-147737303D01*
X207912692Y-147737188D01*
X207914804Y-147730388D01*
X207917665Y-147723878D01*
X207917799Y-147723175D01*
X207917528Y-147716045D01*
X207917881Y-147711359D01*
X207918237Y-147707441D01*
X207936446Y-147536938D01*
X207936446Y-147536932D01*
X207936980Y-147531933D01*
X207926739Y-147340108D01*
X207907200Y-147249797D01*
X207887181Y-147157265D01*
X207887179Y-147157259D01*
X207886118Y-147152354D01*
X207816151Y-146973451D01*
X207718619Y-146807955D01*
X207596006Y-146660077D01*
X207498289Y-146574581D01*
X207455217Y-146536895D01*
X207455211Y-146536891D01*
X207451433Y-146533585D01*
X207288581Y-146431697D01*
X207111597Y-146357009D01*
X207106716Y-146355817D01*
X207106714Y-146355816D01*
X206929880Y-146312617D01*
X206929876Y-146312616D01*
X206924987Y-146311422D01*
X206750205Y-146297432D01*
X206745882Y-146297011D01*
X206741166Y-146296468D01*
X206734217Y-146294858D01*
X206733501Y-146294857D01*
X206724783Y-146296846D01*
X206696768Y-146300000D01*
X202326000Y-146300000D01*
X202257879Y-146279998D01*
X202211386Y-146226342D01*
X202200000Y-146174000D01*
X202200000Y-139826000D01*
X202220002Y-139757879D01*
X202273658Y-139711386D01*
X202326000Y-139700000D01*
X213183138Y-139700000D01*
X213196096Y-139700668D01*
X213210700Y-139702178D01*
X213224812Y-139703637D01*
X213238159Y-139698833D01*
X213238165Y-139698832D01*
X213249127Y-139694886D01*
X213263771Y-139690597D01*
X213268605Y-139689494D01*
X213275128Y-139688006D01*
X213275129Y-139688006D01*
X213288962Y-139684850D01*
X213298362Y-139677360D01*
X213298485Y-139677308D01*
X213299253Y-139676879D01*
X213299358Y-139676804D01*
X213310667Y-139672733D01*
X213320613Y-139662612D01*
X213330537Y-139656254D01*
X213338812Y-139649716D01*
X213511284Y-139545543D01*
X213897881Y-139312039D01*
X213904030Y-139308557D01*
X214509752Y-138987821D01*
X214516092Y-138984690D01*
X215138882Y-138698613D01*
X215145417Y-138695831D01*
X215783339Y-138445301D01*
X215790021Y-138442892D01*
X216441042Y-138228707D01*
X216447848Y-138226678D01*
X217109922Y-138049512D01*
X217116832Y-138047871D01*
X217787804Y-137908299D01*
X217794796Y-137907049D01*
X218472581Y-137805504D01*
X218479632Y-137804650D01*
X219162050Y-137741459D01*
X219169138Y-137741003D01*
X219854061Y-137716364D01*
X219861163Y-137716309D01*
X220203764Y-137723305D01*
G37*
%TD.AperFunction*%
%TD*%
M02*
