%TF.GenerationSoftware,KiCad,Pcbnew,(6.0.0)*%
%TF.CreationDate,2022-07-19T18:14:29+12:00*%
%TF.ProjectId,MOTOR_TERMINAL_BREAKOUT_25,4d4f544f-525f-4544-9552-4d494e414c5f,0A*%
%TF.SameCoordinates,Original*%
%TF.FileFunction,Legend,Top*%
%TF.FilePolarity,Positive*%
%FSLAX46Y46*%
G04 Gerber Fmt 4.6, Leading zero omitted, Abs format (unit mm)*
G04 Created by KiCad (PCBNEW (6.0.0)) date 2022-07-19 18:14:29*
%MOMM*%
%LPD*%
G01*
G04 APERTURE LIST*
%ADD10C,0.405000*%
%ADD11C,0.200000*%
%ADD12C,0.150000*%
G04 APERTURE END LIST*
D10*
X209702500Y-143000000D02*
G75*
G03*
X209702500Y-143000000I-202500J0D01*
G01*
X211202500Y-148000000D02*
G75*
G03*
X211202500Y-148000000I-202500J0D01*
G01*
X218202500Y-141000000D02*
G75*
G03*
X218202500Y-141000000I-202500J0D01*
G01*
D11*
X210357142Y-155082642D02*
X210357142Y-154182642D01*
X210657142Y-154825500D01*
X210957142Y-154182642D01*
X210957142Y-155082642D01*
X211557142Y-154182642D02*
X211728571Y-154182642D01*
X211814285Y-154225500D01*
X211900000Y-154311214D01*
X211942857Y-154482642D01*
X211942857Y-154782642D01*
X211900000Y-154954071D01*
X211814285Y-155039785D01*
X211728571Y-155082642D01*
X211557142Y-155082642D01*
X211471428Y-155039785D01*
X211385714Y-154954071D01*
X211342857Y-154782642D01*
X211342857Y-154482642D01*
X211385714Y-154311214D01*
X211471428Y-154225500D01*
X211557142Y-154182642D01*
X212200000Y-154182642D02*
X212714285Y-154182642D01*
X212457142Y-155082642D02*
X212457142Y-154182642D01*
X213185714Y-154182642D02*
X213357142Y-154182642D01*
X213442857Y-154225500D01*
X213528571Y-154311214D01*
X213571428Y-154482642D01*
X213571428Y-154782642D01*
X213528571Y-154954071D01*
X213442857Y-155039785D01*
X213357142Y-155082642D01*
X213185714Y-155082642D01*
X213100000Y-155039785D01*
X213014285Y-154954071D01*
X212971428Y-154782642D01*
X212971428Y-154482642D01*
X213014285Y-154311214D01*
X213100000Y-154225500D01*
X213185714Y-154182642D01*
X214471428Y-155082642D02*
X214171428Y-154654071D01*
X213957142Y-155082642D02*
X213957142Y-154182642D01*
X214300000Y-154182642D01*
X214385714Y-154225500D01*
X214428571Y-154268357D01*
X214471428Y-154354071D01*
X214471428Y-154482642D01*
X214428571Y-154568357D01*
X214385714Y-154611214D01*
X214300000Y-154654071D01*
X213957142Y-154654071D01*
X215414285Y-154182642D02*
X215928571Y-154182642D01*
X215671428Y-155082642D02*
X215671428Y-154182642D01*
X216228571Y-154611214D02*
X216528571Y-154611214D01*
X216657142Y-155082642D02*
X216228571Y-155082642D01*
X216228571Y-154182642D01*
X216657142Y-154182642D01*
X217557142Y-155082642D02*
X217257142Y-154654071D01*
X217042857Y-155082642D02*
X217042857Y-154182642D01*
X217385714Y-154182642D01*
X217471428Y-154225500D01*
X217514285Y-154268357D01*
X217557142Y-154354071D01*
X217557142Y-154482642D01*
X217514285Y-154568357D01*
X217471428Y-154611214D01*
X217385714Y-154654071D01*
X217042857Y-154654071D01*
X217942857Y-155082642D02*
X217942857Y-154182642D01*
X218242857Y-154825500D01*
X218542857Y-154182642D01*
X218542857Y-155082642D01*
X218971428Y-155082642D02*
X218971428Y-154182642D01*
X219400000Y-155082642D02*
X219400000Y-154182642D01*
X219914285Y-155082642D01*
X219914285Y-154182642D01*
X220300000Y-154825500D02*
X220728571Y-154825500D01*
X220214285Y-155082642D02*
X220514285Y-154182642D01*
X220814285Y-155082642D01*
X221542857Y-155082642D02*
X221114285Y-155082642D01*
X221114285Y-154182642D01*
X222828571Y-154611214D02*
X222957142Y-154654071D01*
X223000000Y-154696928D01*
X223042857Y-154782642D01*
X223042857Y-154911214D01*
X223000000Y-154996928D01*
X222957142Y-155039785D01*
X222871428Y-155082642D01*
X222528571Y-155082642D01*
X222528571Y-154182642D01*
X222828571Y-154182642D01*
X222914285Y-154225500D01*
X222957142Y-154268357D01*
X223000000Y-154354071D01*
X223000000Y-154439785D01*
X222957142Y-154525500D01*
X222914285Y-154568357D01*
X222828571Y-154611214D01*
X222528571Y-154611214D01*
X223942857Y-155082642D02*
X223642857Y-154654071D01*
X223428571Y-155082642D02*
X223428571Y-154182642D01*
X223771428Y-154182642D01*
X223857142Y-154225500D01*
X223900000Y-154268357D01*
X223942857Y-154354071D01*
X223942857Y-154482642D01*
X223900000Y-154568357D01*
X223857142Y-154611214D01*
X223771428Y-154654071D01*
X223428571Y-154654071D01*
X224328571Y-154611214D02*
X224628571Y-154611214D01*
X224757142Y-155082642D02*
X224328571Y-155082642D01*
X224328571Y-154182642D01*
X224757142Y-154182642D01*
X225100000Y-154825500D02*
X225528571Y-154825500D01*
X225014285Y-155082642D02*
X225314285Y-154182642D01*
X225614285Y-155082642D01*
X225914285Y-155082642D02*
X225914285Y-154182642D01*
X226428571Y-155082642D02*
X226042857Y-154568357D01*
X226428571Y-154182642D02*
X225914285Y-154696928D01*
X226985714Y-154182642D02*
X227157142Y-154182642D01*
X227242857Y-154225500D01*
X227328571Y-154311214D01*
X227371428Y-154482642D01*
X227371428Y-154782642D01*
X227328571Y-154954071D01*
X227242857Y-155039785D01*
X227157142Y-155082642D01*
X226985714Y-155082642D01*
X226900000Y-155039785D01*
X226814285Y-154954071D01*
X226771428Y-154782642D01*
X226771428Y-154482642D01*
X226814285Y-154311214D01*
X226900000Y-154225500D01*
X226985714Y-154182642D01*
X227757142Y-154182642D02*
X227757142Y-154911214D01*
X227800000Y-154996928D01*
X227842857Y-155039785D01*
X227928571Y-155082642D01*
X228100000Y-155082642D01*
X228185714Y-155039785D01*
X228228571Y-154996928D01*
X228271428Y-154911214D01*
X228271428Y-154182642D01*
X228571428Y-154182642D02*
X229085714Y-154182642D01*
X228828571Y-155082642D02*
X228828571Y-154182642D01*
X216357142Y-155717357D02*
X216400000Y-155674500D01*
X216485714Y-155631642D01*
X216700000Y-155631642D01*
X216785714Y-155674500D01*
X216828571Y-155717357D01*
X216871428Y-155803071D01*
X216871428Y-155888785D01*
X216828571Y-156017357D01*
X216314285Y-156531642D01*
X216871428Y-156531642D01*
X217685714Y-155631642D02*
X217257142Y-155631642D01*
X217214285Y-156060214D01*
X217257142Y-156017357D01*
X217342857Y-155974500D01*
X217557142Y-155974500D01*
X217642857Y-156017357D01*
X217685714Y-156060214D01*
X217728571Y-156145928D01*
X217728571Y-156360214D01*
X217685714Y-156445928D01*
X217642857Y-156488785D01*
X217557142Y-156531642D01*
X217342857Y-156531642D01*
X217257142Y-156488785D01*
X217214285Y-156445928D01*
X218114285Y-156531642D02*
X218114285Y-155931642D01*
X218114285Y-156017357D02*
X218157142Y-155974500D01*
X218242857Y-155931642D01*
X218371428Y-155931642D01*
X218457142Y-155974500D01*
X218500000Y-156060214D01*
X218500000Y-156531642D01*
X218500000Y-156060214D02*
X218542857Y-155974500D01*
X218628571Y-155931642D01*
X218757142Y-155931642D01*
X218842857Y-155974500D01*
X218885714Y-156060214D01*
X218885714Y-156531642D01*
X219314285Y-156531642D02*
X219314285Y-155931642D01*
X219314285Y-156017357D02*
X219357142Y-155974500D01*
X219442857Y-155931642D01*
X219571428Y-155931642D01*
X219657142Y-155974500D01*
X219700000Y-156060214D01*
X219700000Y-156531642D01*
X219700000Y-156060214D02*
X219742857Y-155974500D01*
X219828571Y-155931642D01*
X219957142Y-155931642D01*
X220042857Y-155974500D01*
X220085714Y-156060214D01*
X220085714Y-156531642D01*
X221114285Y-155931642D02*
X221328571Y-156531642D01*
X221542857Y-155931642D01*
X222357142Y-156531642D02*
X221842857Y-156531642D01*
X222100000Y-156531642D02*
X222100000Y-155631642D01*
X222014285Y-155760214D01*
X221928571Y-155845928D01*
X221842857Y-155888785D01*
X222742857Y-156445928D02*
X222785714Y-156488785D01*
X222742857Y-156531642D01*
X222700000Y-156488785D01*
X222742857Y-156445928D01*
X222742857Y-156531642D01*
X223342857Y-155631642D02*
X223428571Y-155631642D01*
X223514285Y-155674500D01*
X223557142Y-155717357D01*
X223600000Y-155803071D01*
X223642857Y-155974500D01*
X223642857Y-156188785D01*
X223600000Y-156360214D01*
X223557142Y-156445928D01*
X223514285Y-156488785D01*
X223428571Y-156531642D01*
X223342857Y-156531642D01*
X223257142Y-156488785D01*
X223214285Y-156445928D01*
X223171428Y-156360214D01*
X223128571Y-156188785D01*
X223128571Y-155974500D01*
X223171428Y-155803071D01*
X223214285Y-155717357D01*
X223257142Y-155674500D01*
X223342857Y-155631642D01*
%TO.C,G\u002A\u002A\u002A*%
G36*
X211923464Y-144375761D02*
G01*
X212007844Y-144396282D01*
X212037091Y-144406136D01*
X212076834Y-144422740D01*
X212117932Y-144443842D01*
X212158469Y-144468091D01*
X212196531Y-144494137D01*
X212230202Y-144520632D01*
X212257568Y-144546223D01*
X212276715Y-144569562D01*
X212282094Y-144578879D01*
X212292124Y-144611123D01*
X212291937Y-144642429D01*
X212282818Y-144671121D01*
X212266049Y-144695523D01*
X212242914Y-144713959D01*
X212214698Y-144724754D01*
X212182682Y-144726231D01*
X212170777Y-144724227D01*
X212158855Y-144721299D01*
X212148844Y-144717694D01*
X212138553Y-144712008D01*
X212125790Y-144702836D01*
X212108366Y-144688775D01*
X212085317Y-144669456D01*
X212035439Y-144633700D01*
X211979648Y-144604559D01*
X211923529Y-144584693D01*
X211890790Y-144578568D01*
X211850705Y-144575006D01*
X211807303Y-144574019D01*
X211764612Y-144575617D01*
X211726662Y-144579811D01*
X211705882Y-144584083D01*
X211640458Y-144607320D01*
X211579693Y-144640790D01*
X211524831Y-144683469D01*
X211477115Y-144734331D01*
X211437790Y-144792351D01*
X211425969Y-144814706D01*
X211404258Y-144865479D01*
X211390516Y-144914856D01*
X211383973Y-144966710D01*
X211383860Y-145024918D01*
X211383932Y-145026471D01*
X211391422Y-145094261D01*
X211407612Y-145155311D01*
X211433296Y-145211414D01*
X211469268Y-145264367D01*
X211508823Y-145308536D01*
X211560102Y-145354035D01*
X211613242Y-145388564D01*
X211669974Y-145412883D01*
X211732032Y-145427751D01*
X211794117Y-145433690D01*
X211839852Y-145434229D01*
X211877823Y-145431694D01*
X211905882Y-145427138D01*
X211950784Y-145413931D01*
X211998599Y-145393278D01*
X212045301Y-145367235D01*
X212086866Y-145337857D01*
X212096428Y-145329844D01*
X212124801Y-145306938D01*
X212148907Y-145292275D01*
X212171528Y-145284683D01*
X212195448Y-145282985D01*
X212205816Y-145283676D01*
X212238106Y-145292111D01*
X212264083Y-145310124D01*
X212282552Y-145336878D01*
X212282909Y-145337654D01*
X212292249Y-145366067D01*
X212293360Y-145393318D01*
X212285746Y-145420219D01*
X212268915Y-145447583D01*
X212242372Y-145476222D01*
X212205622Y-145506946D01*
X212160283Y-145539157D01*
X212094653Y-145577089D01*
X212023167Y-145607530D01*
X211967647Y-145624436D01*
X211933994Y-145630759D01*
X211892205Y-145635402D01*
X211845806Y-145638254D01*
X211798320Y-145639208D01*
X211753271Y-145638154D01*
X211714183Y-145634984D01*
X211698948Y-145632745D01*
X211617737Y-145612488D01*
X211540106Y-145581202D01*
X211466724Y-145539256D01*
X211398261Y-145487018D01*
X211349255Y-145439948D01*
X211293522Y-145373474D01*
X211248875Y-145303486D01*
X211215151Y-145229541D01*
X211192188Y-145151199D01*
X211179825Y-145068018D01*
X211177899Y-144979558D01*
X211178111Y-144974100D01*
X211185628Y-144893499D01*
X211201470Y-144819754D01*
X211226258Y-144750831D01*
X211260614Y-144684693D01*
X211272092Y-144666303D01*
X211324663Y-144595247D01*
X211384169Y-144533210D01*
X211449758Y-144480481D01*
X211520582Y-144437349D01*
X211595790Y-144404103D01*
X211674532Y-144381032D01*
X211755959Y-144368425D01*
X211839219Y-144366572D01*
X211923464Y-144375761D01*
G37*
G36*
X218580782Y-144369283D02*
G01*
X218660529Y-144381345D01*
X218737717Y-144402956D01*
X218811065Y-144433903D01*
X218879291Y-144473975D01*
X218941116Y-144522960D01*
X218953924Y-144535101D01*
X218975882Y-144558030D01*
X218990033Y-144576617D01*
X218998162Y-144593336D01*
X218999762Y-144598617D01*
X219003476Y-144632849D01*
X218996893Y-144664035D01*
X218981288Y-144690496D01*
X218957934Y-144710554D01*
X218928107Y-144722532D01*
X218903612Y-144725210D01*
X218885389Y-144724449D01*
X218869959Y-144721309D01*
X218854721Y-144714504D01*
X218837073Y-144702751D01*
X218814415Y-144684762D01*
X218803810Y-144675907D01*
X218743981Y-144633163D01*
X218678223Y-144600576D01*
X218641176Y-144587494D01*
X218604798Y-144579471D01*
X218561178Y-144574776D01*
X218514373Y-144573457D01*
X218468437Y-144575562D01*
X218427428Y-144581141D01*
X218411764Y-144584769D01*
X218347668Y-144608147D01*
X218287699Y-144641762D01*
X218233330Y-144684393D01*
X218186029Y-144734817D01*
X218147268Y-144791812D01*
X218135197Y-144814706D01*
X218116390Y-144858201D01*
X218103887Y-144900121D01*
X218096802Y-144944543D01*
X218094250Y-144995540D01*
X218094204Y-145003471D01*
X218098421Y-145073099D01*
X218111702Y-145136111D01*
X218134697Y-145194084D01*
X218168055Y-145248594D01*
X218212427Y-145301216D01*
X218220352Y-145309325D01*
X218245848Y-145334194D01*
X218267078Y-145352668D01*
X218287446Y-145367273D01*
X218310357Y-145380535D01*
X218329411Y-145390213D01*
X218395546Y-145416478D01*
X218463540Y-145431696D01*
X218532145Y-145435961D01*
X218600114Y-145429368D01*
X218666199Y-145412011D01*
X218729153Y-145383985D01*
X218772625Y-145356692D01*
X218792119Y-145342134D01*
X218809160Y-145328322D01*
X218820217Y-145318125D01*
X218820588Y-145317719D01*
X218846053Y-145297673D01*
X218877114Y-145285910D01*
X218910463Y-145283028D01*
X218942791Y-145289623D01*
X218952582Y-145293935D01*
X218976963Y-145312511D01*
X218993823Y-145337974D01*
X219002535Y-145367682D01*
X219002473Y-145398988D01*
X218993011Y-145429248D01*
X218987071Y-145439546D01*
X218966364Y-145464431D01*
X218936560Y-145491466D01*
X218899782Y-145519261D01*
X218858153Y-145546424D01*
X218813794Y-145571567D01*
X218768829Y-145593299D01*
X218727524Y-145609506D01*
X218668568Y-145625426D01*
X218603001Y-145635943D01*
X218534804Y-145640770D01*
X218467957Y-145639621D01*
X218407847Y-145632467D01*
X218337745Y-145615275D01*
X218268628Y-145588931D01*
X218234108Y-145572340D01*
X218188315Y-145546640D01*
X218146634Y-145517949D01*
X218105992Y-145483897D01*
X218063315Y-145442110D01*
X218057680Y-145436221D01*
X218003589Y-145372311D01*
X217960372Y-145305349D01*
X217927246Y-145233850D01*
X217903425Y-145156326D01*
X217898721Y-145135294D01*
X217892739Y-145094899D01*
X217889515Y-145047084D01*
X217888966Y-144995370D01*
X217891006Y-144943275D01*
X217895551Y-144894319D01*
X217902517Y-144852023D01*
X217905833Y-144838236D01*
X217920022Y-144794805D01*
X217939785Y-144747054D01*
X217963005Y-144699568D01*
X217987565Y-144656928D01*
X217994491Y-144646338D01*
X218029087Y-144601587D01*
X218071912Y-144556360D01*
X218120222Y-144512972D01*
X218171272Y-144473737D01*
X218222318Y-144440973D01*
X218261820Y-144420748D01*
X218338994Y-144392501D01*
X218418733Y-144374649D01*
X218499756Y-144366980D01*
X218580782Y-144369283D01*
G37*
G36*
X224122034Y-143731153D02*
G01*
X224152302Y-143741739D01*
X224154221Y-143742834D01*
X224174615Y-143758663D01*
X224190956Y-143778178D01*
X224192710Y-143781107D01*
X224205882Y-143804543D01*
X224205882Y-145566614D01*
X224190922Y-145592140D01*
X224170084Y-145616796D01*
X224142685Y-145633334D01*
X224111417Y-145640909D01*
X224078968Y-145638673D01*
X224061473Y-145632903D01*
X224039051Y-145617732D01*
X224019767Y-145594863D01*
X224006943Y-145568361D01*
X224005960Y-145564997D01*
X224005008Y-145555869D01*
X224004160Y-145535889D01*
X224003416Y-145504978D01*
X224002774Y-145463054D01*
X224002236Y-145410038D01*
X224001800Y-145345848D01*
X224001466Y-145270405D01*
X224001234Y-145183628D01*
X224001102Y-145085437D01*
X224001072Y-144975750D01*
X224001142Y-144854488D01*
X224001311Y-144721570D01*
X224001394Y-144672617D01*
X224001610Y-144554148D01*
X224001824Y-144446876D01*
X224002041Y-144350233D01*
X224002271Y-144263650D01*
X224002519Y-144186562D01*
X224002794Y-144118398D01*
X224003104Y-144058593D01*
X224003456Y-144006577D01*
X224003857Y-143961783D01*
X224004315Y-143923644D01*
X224004838Y-143891591D01*
X224005433Y-143865056D01*
X224006108Y-143843472D01*
X224006870Y-143826270D01*
X224007727Y-143812884D01*
X224008687Y-143802745D01*
X224009756Y-143795285D01*
X224010944Y-143789937D01*
X224012256Y-143786132D01*
X224013229Y-143784128D01*
X224033531Y-143758068D01*
X224060119Y-143740059D01*
X224090463Y-143730840D01*
X224122034Y-143731153D01*
G37*
G36*
X214764438Y-144900269D02*
G01*
X214838505Y-144900311D01*
X214902417Y-144900404D01*
X214956979Y-144900566D01*
X215002997Y-144900816D01*
X215041275Y-144901171D01*
X215072618Y-144901650D01*
X215097831Y-144902272D01*
X215117720Y-144903055D01*
X215133089Y-144904018D01*
X215144743Y-144905178D01*
X215153487Y-144906554D01*
X215160127Y-144908165D01*
X215165466Y-144910028D01*
X215168728Y-144911432D01*
X215193042Y-144928209D01*
X215212942Y-144952729D01*
X215225485Y-144981061D01*
X215227372Y-144989715D01*
X215226602Y-145018824D01*
X215216492Y-145048034D01*
X215198938Y-145073967D01*
X215175839Y-145093245D01*
X215166640Y-145097859D01*
X215157022Y-145099421D01*
X215136757Y-145100827D01*
X215106945Y-145102076D01*
X215068686Y-145103170D01*
X215023083Y-145104108D01*
X214971235Y-145104890D01*
X214914245Y-145105518D01*
X214853212Y-145105991D01*
X214789239Y-145106309D01*
X214723426Y-145106473D01*
X214656875Y-145106483D01*
X214590685Y-145106340D01*
X214525959Y-145106043D01*
X214463798Y-145105593D01*
X214405302Y-145104991D01*
X214351572Y-145104236D01*
X214303710Y-145103328D01*
X214262816Y-145102269D01*
X214229992Y-145101058D01*
X214206339Y-145099696D01*
X214192957Y-145098182D01*
X214190884Y-145097609D01*
X214166786Y-145081290D01*
X214147423Y-145057152D01*
X214134709Y-145028671D01*
X214130561Y-144999324D01*
X214131450Y-144989715D01*
X214141212Y-144961005D01*
X214159214Y-144934929D01*
X214182513Y-144915418D01*
X214190094Y-144911432D01*
X214195013Y-144909389D01*
X214200690Y-144907610D01*
X214207931Y-144906078D01*
X214217540Y-144904775D01*
X214230324Y-144903681D01*
X214247086Y-144902780D01*
X214268631Y-144902052D01*
X214295765Y-144901478D01*
X214329293Y-144901042D01*
X214370020Y-144900723D01*
X214418750Y-144900504D01*
X214476288Y-144900367D01*
X214543441Y-144900292D01*
X214621012Y-144900263D01*
X214679411Y-144900259D01*
X214764438Y-144900269D01*
G37*
G36*
X212592139Y-143778190D02*
G01*
X212615052Y-143752196D01*
X212642360Y-143735885D01*
X212672002Y-143729108D01*
X212701914Y-143731717D01*
X212730034Y-143743560D01*
X212754300Y-143764489D01*
X212771235Y-143791177D01*
X212773484Y-143796621D01*
X212775401Y-143803068D01*
X212777013Y-143811445D01*
X212778347Y-143822680D01*
X212779429Y-143837704D01*
X212780285Y-143857443D01*
X212780944Y-143882827D01*
X212781431Y-143914784D01*
X212781774Y-143954243D01*
X212781998Y-144002131D01*
X212782132Y-144059379D01*
X212782202Y-144126913D01*
X212782223Y-144172059D01*
X212782324Y-144235692D01*
X212782569Y-144295701D01*
X212782946Y-144351074D01*
X212783439Y-144400802D01*
X212784034Y-144443874D01*
X212784718Y-144479280D01*
X212785476Y-144506008D01*
X212786295Y-144523050D01*
X212787160Y-144529394D01*
X212787209Y-144529412D01*
X212794182Y-144525514D01*
X212804633Y-144516022D01*
X212805641Y-144514962D01*
X212817033Y-144504773D01*
X212834851Y-144490932D01*
X212855610Y-144476121D01*
X212859649Y-144473385D01*
X212933324Y-144430826D01*
X213010893Y-144398907D01*
X213091241Y-144377636D01*
X213173256Y-144367024D01*
X213255823Y-144367080D01*
X213337827Y-144377815D01*
X213418155Y-144399238D01*
X213495692Y-144431359D01*
X213558721Y-144467178D01*
X213591105Y-144490756D01*
X213627088Y-144521286D01*
X213663750Y-144555927D01*
X213698172Y-144591839D01*
X213727434Y-144626180D01*
X213741206Y-144644715D01*
X213784551Y-144717603D01*
X213817352Y-144795188D01*
X213839355Y-144876463D01*
X213850305Y-144960420D01*
X213849948Y-145046051D01*
X213848064Y-145067591D01*
X213834169Y-145152990D01*
X213810733Y-145231871D01*
X213777305Y-145305184D01*
X213733432Y-145373878D01*
X213678662Y-145438904D01*
X213664841Y-145453077D01*
X213599297Y-145511436D01*
X213530371Y-145558617D01*
X213457540Y-145594852D01*
X213380281Y-145620376D01*
X213298070Y-145635420D01*
X213247058Y-145639474D01*
X213160013Y-145638664D01*
X213078854Y-145628056D01*
X213002480Y-145607316D01*
X212929786Y-145576110D01*
X212859670Y-145534102D01*
X212830882Y-145513277D01*
X212782352Y-145476389D01*
X212782223Y-145516136D01*
X212777860Y-145557136D01*
X212765368Y-145591017D01*
X212745211Y-145616946D01*
X212717855Y-145634094D01*
X212715793Y-145634903D01*
X212684697Y-145641019D01*
X212652535Y-145637696D01*
X212627117Y-145627265D01*
X212608960Y-145612795D01*
X212593004Y-145594528D01*
X212590382Y-145590530D01*
X212576530Y-145567647D01*
X212576511Y-145002942D01*
X212785668Y-145002942D01*
X212785832Y-145038400D01*
X212786586Y-145064988D01*
X212788266Y-145085599D01*
X212791212Y-145103125D01*
X212795760Y-145120459D01*
X212801488Y-145138236D01*
X212829602Y-145203887D01*
X212867150Y-145263239D01*
X212913197Y-145315422D01*
X212966810Y-145359565D01*
X213027057Y-145394799D01*
X213093002Y-145420254D01*
X213108823Y-145424619D01*
X213150639Y-145431808D01*
X213199147Y-145434484D01*
X213250246Y-145432819D01*
X213299834Y-145426984D01*
X213343811Y-145417150D01*
X213352360Y-145414455D01*
X213414778Y-145387541D01*
X213471352Y-145351341D01*
X213521341Y-145307067D01*
X213564001Y-145255931D01*
X213598590Y-145199146D01*
X213624365Y-145137924D01*
X213640584Y-145073478D01*
X213646505Y-145007018D01*
X213641742Y-144942010D01*
X213626805Y-144875527D01*
X213603328Y-144815799D01*
X213570318Y-144760903D01*
X213526780Y-144708917D01*
X213515061Y-144697059D01*
X213465056Y-144653274D01*
X213413945Y-144620036D01*
X213359321Y-144596196D01*
X213298777Y-144580610D01*
X213258184Y-144574695D01*
X213187383Y-144572559D01*
X213118654Y-144581793D01*
X213052977Y-144602057D01*
X212991331Y-144633006D01*
X212934697Y-144674298D01*
X212911175Y-144696095D01*
X212864500Y-144750254D01*
X212827018Y-144810139D01*
X212802063Y-144867647D01*
X212795619Y-144887080D01*
X212791122Y-144903941D01*
X212788227Y-144921101D01*
X212786584Y-144941426D01*
X212785847Y-144967785D01*
X212785668Y-145002942D01*
X212576511Y-145002942D01*
X212576470Y-143802355D01*
X212592139Y-143778190D01*
G37*
G36*
X222450779Y-144967215D02*
G01*
X222452021Y-144931567D01*
X222454543Y-144901993D01*
X222458539Y-144875665D01*
X222460744Y-144864706D01*
X222483366Y-144786900D01*
X222516654Y-144712334D01*
X222559696Y-144642147D01*
X222611582Y-144577479D01*
X222671402Y-144519469D01*
X222738244Y-144469257D01*
X222808823Y-144429131D01*
X222861256Y-144405961D01*
X222911585Y-144389112D01*
X222964409Y-144377295D01*
X223021545Y-144369507D01*
X223107625Y-144366252D01*
X223191832Y-144374433D01*
X223273376Y-144393773D01*
X223351464Y-144423991D01*
X223425307Y-144464810D01*
X223494113Y-144515951D01*
X223529610Y-144548463D01*
X223588944Y-144614416D01*
X223637367Y-144684762D01*
X223674910Y-144759566D01*
X223701602Y-144838892D01*
X223717474Y-144922805D01*
X223721390Y-144967018D01*
X223720842Y-145055077D01*
X223709115Y-145139576D01*
X223686326Y-145220206D01*
X223652593Y-145296658D01*
X223608036Y-145368621D01*
X223552772Y-145435785D01*
X223536168Y-145452918D01*
X223471335Y-145510639D01*
X223403242Y-145557386D01*
X223330922Y-145593727D01*
X223253408Y-145620225D01*
X223247758Y-145621728D01*
X223205431Y-145630236D01*
X223155814Y-145636137D01*
X223102770Y-145639285D01*
X223050164Y-145639536D01*
X223001858Y-145636745D01*
X222968560Y-145632160D01*
X222885973Y-145610738D01*
X222807893Y-145578926D01*
X222735162Y-145537505D01*
X222668618Y-145487256D01*
X222609103Y-145428961D01*
X222557457Y-145363399D01*
X222514520Y-145291351D01*
X222481133Y-145213599D01*
X222466264Y-145165406D01*
X222460370Y-145141726D01*
X222456191Y-145120333D01*
X222453424Y-145098236D01*
X222451764Y-145072445D01*
X222450907Y-145039970D01*
X222450679Y-145017402D01*
X222652382Y-145017402D01*
X222659607Y-145085065D01*
X222677826Y-145150740D01*
X222706886Y-145213485D01*
X222746636Y-145272365D01*
X222779411Y-145309428D01*
X222831093Y-145354769D01*
X222887761Y-145389995D01*
X222950750Y-145415847D01*
X222991176Y-145426947D01*
X223023337Y-145431746D01*
X223062984Y-145433719D01*
X223106223Y-145433025D01*
X223149160Y-145429823D01*
X223187902Y-145424274D01*
X223214705Y-145417803D01*
X223278234Y-145391815D01*
X223336942Y-145355657D01*
X223389657Y-145310345D01*
X223435204Y-145256895D01*
X223472408Y-145196324D01*
X223473733Y-145193712D01*
X223497836Y-145133213D01*
X223512158Y-145068136D01*
X223516612Y-145000573D01*
X223511109Y-144932616D01*
X223495560Y-144866356D01*
X223488444Y-144845840D01*
X223464226Y-144795512D01*
X223430601Y-144745935D01*
X223389801Y-144699559D01*
X223344060Y-144658836D01*
X223295611Y-144626215D01*
X223281314Y-144618591D01*
X223239769Y-144599539D01*
X223201785Y-144586494D01*
X223163298Y-144578531D01*
X223120239Y-144574726D01*
X223085294Y-144574043D01*
X223036988Y-144575466D01*
X222995962Y-144580371D01*
X222958007Y-144589710D01*
X222918913Y-144604436D01*
X222888235Y-144618646D01*
X222864283Y-144631210D01*
X222843531Y-144644429D01*
X222822998Y-144660569D01*
X222799705Y-144681892D01*
X222781681Y-144699596D01*
X222756741Y-144725096D01*
X222738292Y-144745827D01*
X222724052Y-144764855D01*
X222711739Y-144785252D01*
X222699072Y-144810084D01*
X222698212Y-144811863D01*
X222671532Y-144879862D01*
X222656306Y-144948688D01*
X222652382Y-145017402D01*
X222450679Y-145017402D01*
X222450622Y-145011765D01*
X222450779Y-144967215D01*
G37*
G36*
X225963312Y-144831314D02*
G01*
X225990617Y-144751928D01*
X226028423Y-144677451D01*
X226076485Y-144608352D01*
X226134560Y-144545098D01*
X226202406Y-144488158D01*
X226212803Y-144480622D01*
X226282865Y-144437729D01*
X226357483Y-144404925D01*
X226435422Y-144382183D01*
X226515444Y-144369477D01*
X226596315Y-144366779D01*
X226676798Y-144374062D01*
X226755659Y-144391300D01*
X226831660Y-144418466D01*
X226903566Y-144455533D01*
X226963235Y-144496921D01*
X227011764Y-144535324D01*
X227011764Y-144491002D01*
X227013589Y-144456179D01*
X227019808Y-144429617D01*
X227031537Y-144408279D01*
X227048875Y-144390012D01*
X227076387Y-144373262D01*
X227107970Y-144366124D01*
X227140005Y-144369338D01*
X227144064Y-144370571D01*
X227169074Y-144383921D01*
X227191431Y-144404854D01*
X227207490Y-144429566D01*
X227211773Y-144441209D01*
X227212893Y-144450087D01*
X227213863Y-144468019D01*
X227214685Y-144495272D01*
X227215360Y-144532114D01*
X227215891Y-144578810D01*
X227216278Y-144635628D01*
X227216524Y-144702834D01*
X227216631Y-144780697D01*
X227216600Y-144869483D01*
X227216433Y-144969459D01*
X227216131Y-145080891D01*
X227216074Y-145098604D01*
X227215752Y-145201015D01*
X227215462Y-145292390D01*
X227215165Y-145373458D01*
X227214822Y-145444948D01*
X227214392Y-145507587D01*
X227213837Y-145562105D01*
X227213117Y-145609230D01*
X227212192Y-145649691D01*
X227211022Y-145684215D01*
X227209568Y-145713533D01*
X227207791Y-145738373D01*
X227205650Y-145759462D01*
X227203105Y-145777530D01*
X227200119Y-145793306D01*
X227196649Y-145807517D01*
X227192658Y-145820893D01*
X227188105Y-145834162D01*
X227182951Y-145848053D01*
X227177156Y-145863294D01*
X227174031Y-145871584D01*
X227144004Y-145937840D01*
X227104485Y-146000858D01*
X227054521Y-146062073D01*
X227032352Y-146085410D01*
X226992160Y-146124236D01*
X226954953Y-146155569D01*
X226917383Y-146181832D01*
X226876099Y-146205443D01*
X226844838Y-146220917D01*
X226806023Y-146238312D01*
X226771177Y-146251452D01*
X226737395Y-146260947D01*
X226701774Y-146267406D01*
X226661408Y-146271440D01*
X226613394Y-146273657D01*
X226591176Y-146274176D01*
X226544119Y-146274649D01*
X226506985Y-146274037D01*
X226477973Y-146272259D01*
X226455284Y-146269236D01*
X226447976Y-146267750D01*
X226364023Y-146243738D01*
X226287606Y-146211107D01*
X226217819Y-146169433D01*
X226183781Y-146143993D01*
X226153878Y-146119297D01*
X226132313Y-146099287D01*
X226117763Y-146081936D01*
X226108905Y-146065216D01*
X226104419Y-146047098D01*
X226102980Y-146025553D01*
X226102941Y-146020007D01*
X226104958Y-145988733D01*
X226112093Y-145965803D01*
X226125971Y-145948331D01*
X226148214Y-145933428D01*
X226153061Y-145930883D01*
X226182793Y-145919996D01*
X226211448Y-145919005D01*
X226240538Y-145928238D01*
X226271572Y-145948026D01*
X226285889Y-145959861D01*
X226331807Y-145996371D01*
X226377176Y-146024329D01*
X226425863Y-146046086D01*
X226430669Y-146047867D01*
X226495087Y-146065383D01*
X226562450Y-146072629D01*
X226630505Y-146069750D01*
X226697001Y-146056892D01*
X226759684Y-146034199D01*
X226777221Y-146025593D01*
X226835120Y-145988793D01*
X226886860Y-145942825D01*
X226931242Y-145889191D01*
X226967065Y-145829390D01*
X226993131Y-145764924D01*
X226997509Y-145750000D01*
X227000238Y-145735333D01*
X227002880Y-145712728D01*
X227005351Y-145684151D01*
X227007570Y-145651568D01*
X227009452Y-145616946D01*
X227010916Y-145582250D01*
X227011878Y-145549447D01*
X227012255Y-145520501D01*
X227011965Y-145497379D01*
X227010925Y-145482047D01*
X227009051Y-145476471D01*
X227009042Y-145476471D01*
X227002784Y-145480069D01*
X226990512Y-145489479D01*
X226975676Y-145501982D01*
X226927634Y-145538258D01*
X226871156Y-145571207D01*
X226809445Y-145599221D01*
X226745706Y-145620690D01*
X226732352Y-145624219D01*
X226694554Y-145631460D01*
X226649103Y-145636668D01*
X226599965Y-145639663D01*
X226551107Y-145640265D01*
X226506494Y-145638293D01*
X226481875Y-145635580D01*
X226399393Y-145617822D01*
X226321367Y-145589279D01*
X226247631Y-145549863D01*
X226178019Y-145499486D01*
X226114409Y-145440200D01*
X226058887Y-145375036D01*
X226014418Y-145306664D01*
X225980715Y-145234359D01*
X225957491Y-145157396D01*
X225944458Y-145075050D01*
X225941176Y-145002942D01*
X225941210Y-145002412D01*
X226147160Y-145002412D01*
X226150080Y-145061746D01*
X226159066Y-145114053D01*
X226174788Y-145162760D01*
X226181720Y-145178960D01*
X226216422Y-145241714D01*
X226259954Y-145297245D01*
X226311369Y-145344756D01*
X226369720Y-145383450D01*
X226434060Y-145412529D01*
X226473529Y-145424619D01*
X226514385Y-145431667D01*
X226561980Y-145434427D01*
X226612160Y-145433061D01*
X226660774Y-145427733D01*
X226703669Y-145418605D01*
X226714705Y-145415182D01*
X226777137Y-145388035D01*
X226834935Y-145350390D01*
X226888654Y-145301886D01*
X226889452Y-145301052D01*
X226934859Y-145246228D01*
X226969220Y-145188004D01*
X226993019Y-145125324D01*
X227006737Y-145057131D01*
X227008507Y-145040666D01*
X227009010Y-144973121D01*
X226998657Y-144906908D01*
X226978251Y-144843284D01*
X226948597Y-144783507D01*
X226910497Y-144728834D01*
X226864757Y-144680523D01*
X226812179Y-144639832D01*
X226753568Y-144608017D01*
X226724717Y-144596680D01*
X226655592Y-144578608D01*
X226586162Y-144571879D01*
X226517565Y-144576162D01*
X226450939Y-144591124D01*
X226387420Y-144616433D01*
X226328147Y-144651756D01*
X226274257Y-144696760D01*
X226235775Y-144739526D01*
X226197449Y-144796923D01*
X226169956Y-144858748D01*
X226153224Y-144925209D01*
X226147184Y-144996517D01*
X226147160Y-145002412D01*
X225941210Y-145002412D01*
X225946751Y-144915141D01*
X225963312Y-144831314D01*
G37*
G36*
X227671680Y-144368686D02*
G01*
X227699179Y-144378703D01*
X227723489Y-144398057D01*
X227730511Y-144406654D01*
X227735059Y-144414860D01*
X227744086Y-144432986D01*
X227757220Y-144460233D01*
X227774089Y-144495804D01*
X227794320Y-144538900D01*
X227817542Y-144588722D01*
X227843382Y-144644474D01*
X227871469Y-144705356D01*
X227901430Y-144770570D01*
X227932894Y-144839318D01*
X227964587Y-144908824D01*
X227996861Y-144979720D01*
X228027732Y-145047513D01*
X228056855Y-145111442D01*
X228083882Y-145170750D01*
X228108467Y-145224678D01*
X228130266Y-145272467D01*
X228148931Y-145313358D01*
X228164117Y-145346594D01*
X228175478Y-145371415D01*
X228182667Y-145387063D01*
X228185339Y-145392779D01*
X228185344Y-145392788D01*
X228187902Y-145387797D01*
X228194985Y-145372843D01*
X228206252Y-145348672D01*
X228221359Y-145316033D01*
X228239963Y-145275670D01*
X228261721Y-145228332D01*
X228286289Y-145174763D01*
X228313325Y-145115713D01*
X228342485Y-145051926D01*
X228373426Y-144984150D01*
X228405805Y-144913131D01*
X228409454Y-144905123D01*
X228450647Y-144814836D01*
X228487289Y-144734824D01*
X228519606Y-144664611D01*
X228547825Y-144603721D01*
X228572171Y-144551677D01*
X228592872Y-144508003D01*
X228610154Y-144472224D01*
X228624243Y-144443863D01*
X228635367Y-144422444D01*
X228643750Y-144407491D01*
X228649620Y-144398528D01*
X228651428Y-144396397D01*
X228678295Y-144376775D01*
X228708861Y-144367431D01*
X228740696Y-144368607D01*
X228771367Y-144380544D01*
X228776742Y-144383967D01*
X228800178Y-144403258D01*
X228813895Y-144424131D01*
X228819773Y-144450148D01*
X228820356Y-144466608D01*
X228820210Y-144472049D01*
X228819676Y-144477825D01*
X228818511Y-144484498D01*
X228816469Y-144492633D01*
X228813305Y-144502792D01*
X228808774Y-144515538D01*
X228802631Y-144531435D01*
X228794630Y-144551047D01*
X228784528Y-144574936D01*
X228772078Y-144603666D01*
X228757037Y-144637801D01*
X228739158Y-144677903D01*
X228718196Y-144724536D01*
X228693908Y-144778263D01*
X228666046Y-144839648D01*
X228634368Y-144909254D01*
X228598627Y-144987643D01*
X228558578Y-145075381D01*
X228513977Y-145173029D01*
X228494937Y-145214706D01*
X228455060Y-145301902D01*
X228416239Y-145386623D01*
X228378784Y-145468201D01*
X228343005Y-145545967D01*
X228309212Y-145619253D01*
X228277714Y-145687391D01*
X228248823Y-145749711D01*
X228222848Y-145805545D01*
X228200100Y-145854225D01*
X228180888Y-145895082D01*
X228165523Y-145927446D01*
X228154314Y-145950651D01*
X228147573Y-145964026D01*
X228146427Y-145966091D01*
X228099659Y-146034675D01*
X228044818Y-146096076D01*
X227983032Y-146149628D01*
X227915433Y-146194664D01*
X227843152Y-146230515D01*
X227767320Y-146256516D01*
X227689066Y-146271999D01*
X227620483Y-146276394D01*
X227592644Y-146276147D01*
X227573500Y-146274952D01*
X227559989Y-146272260D01*
X227549048Y-146267520D01*
X227540229Y-146261980D01*
X227516818Y-146239546D01*
X227501858Y-146211381D01*
X227495888Y-146180226D01*
X227499448Y-146148816D01*
X227512418Y-146120840D01*
X227527032Y-146103438D01*
X227544947Y-146090626D01*
X227568409Y-146081451D01*
X227599667Y-146074962D01*
X227629411Y-146071303D01*
X227675467Y-146065475D01*
X227714016Y-146057509D01*
X227749280Y-146046199D01*
X227785480Y-146030342D01*
X227801709Y-146022176D01*
X227840208Y-145998430D01*
X227879751Y-145967436D01*
X227916719Y-145932430D01*
X227947488Y-145896648D01*
X227956683Y-145883700D01*
X227964794Y-145869938D01*
X227976073Y-145848696D01*
X227989604Y-145821920D01*
X228004470Y-145791556D01*
X228019756Y-145759550D01*
X228034546Y-145727846D01*
X228047925Y-145698391D01*
X228058976Y-145673129D01*
X228066784Y-145654006D01*
X228070433Y-145642968D01*
X228070588Y-145641724D01*
X228068191Y-145635638D01*
X228061214Y-145619560D01*
X228049974Y-145594194D01*
X228034790Y-145560245D01*
X228015980Y-145518416D01*
X227993862Y-145469411D01*
X227968755Y-145413935D01*
X227940977Y-145352692D01*
X227910845Y-145286386D01*
X227878679Y-145215721D01*
X227844796Y-145141402D01*
X227810501Y-145066289D01*
X227768853Y-144975097D01*
X227731851Y-144893971D01*
X227699224Y-144822291D01*
X227670704Y-144759434D01*
X227646020Y-144704778D01*
X227624903Y-144657703D01*
X227607081Y-144617585D01*
X227592287Y-144583803D01*
X227580249Y-144555737D01*
X227570697Y-144532762D01*
X227563363Y-144514259D01*
X227557976Y-144499606D01*
X227554265Y-144488179D01*
X227551962Y-144479359D01*
X227550796Y-144472523D01*
X227550497Y-144467311D01*
X227555590Y-144435309D01*
X227569362Y-144408644D01*
X227589835Y-144387983D01*
X227615031Y-144373992D01*
X227642972Y-144367338D01*
X227671680Y-144368686D01*
G37*
G36*
X219471565Y-143734913D02*
G01*
X219499239Y-143749974D01*
X219521848Y-143772432D01*
X219534919Y-143795971D01*
X219536446Y-143806158D01*
X219537759Y-143828077D01*
X219538859Y-143861731D01*
X219539746Y-143907127D01*
X219540420Y-143964268D01*
X219540881Y-144033159D01*
X219541129Y-144113806D01*
X219541176Y-144173980D01*
X219541176Y-144535430D01*
X219575000Y-144507879D01*
X219644411Y-144458699D01*
X219718653Y-144419782D01*
X219796627Y-144391245D01*
X219877234Y-144373201D01*
X219959375Y-144365767D01*
X220041949Y-144369059D01*
X220123858Y-144383192D01*
X220204003Y-144408282D01*
X220264273Y-144435373D01*
X220337516Y-144479506D01*
X220404020Y-144532757D01*
X220462944Y-144594092D01*
X220513448Y-144662475D01*
X220554692Y-144736869D01*
X220585835Y-144816241D01*
X220592977Y-144840477D01*
X220608415Y-144897059D01*
X220610402Y-145230996D01*
X220612390Y-145564933D01*
X220598905Y-145588926D01*
X220578530Y-145614351D01*
X220552105Y-145631563D01*
X220522127Y-145640135D01*
X220491092Y-145639639D01*
X220461495Y-145629648D01*
X220441871Y-145615785D01*
X220430300Y-145601978D01*
X220419180Y-145583851D01*
X220417000Y-145579412D01*
X220414560Y-145573489D01*
X220412513Y-145566509D01*
X220410824Y-145557449D01*
X220409458Y-145545282D01*
X220408381Y-145528984D01*
X220407557Y-145507530D01*
X220406953Y-145479894D01*
X220406532Y-145445052D01*
X220406261Y-145401978D01*
X220406105Y-145349647D01*
X220406029Y-145287035D01*
X220406011Y-145255492D01*
X220405934Y-145183250D01*
X220405719Y-145121672D01*
X220405291Y-145069660D01*
X220404574Y-145026114D01*
X220403495Y-144989934D01*
X220401977Y-144960020D01*
X220399945Y-144935273D01*
X220397324Y-144914594D01*
X220394038Y-144896882D01*
X220390014Y-144881039D01*
X220385174Y-144865964D01*
X220379445Y-144850558D01*
X220378075Y-144847059D01*
X220347425Y-144784518D01*
X220307960Y-144728673D01*
X220260823Y-144680218D01*
X220207156Y-144639848D01*
X220148102Y-144608257D01*
X220084803Y-144586138D01*
X220018400Y-144574185D01*
X219950037Y-144573093D01*
X219930143Y-144574891D01*
X219899851Y-144579230D01*
X219868707Y-144585107D01*
X219842116Y-144591464D01*
X219835294Y-144593476D01*
X219782084Y-144615798D01*
X219729989Y-144647909D01*
X219681137Y-144687878D01*
X219637659Y-144733773D01*
X219601687Y-144783664D01*
X219579742Y-144825158D01*
X219572546Y-144841518D01*
X219566420Y-144856210D01*
X219561267Y-144870312D01*
X219556990Y-144884904D01*
X219553493Y-144901064D01*
X219550679Y-144919870D01*
X219548452Y-144942401D01*
X219546714Y-144969736D01*
X219545369Y-145002953D01*
X219544320Y-145043131D01*
X219543472Y-145091349D01*
X219542726Y-145148685D01*
X219541987Y-145216217D01*
X219541628Y-145250443D01*
X219538235Y-145574415D01*
X219523630Y-145595718D01*
X219500584Y-145619787D01*
X219471813Y-145635201D01*
X219440006Y-145641172D01*
X219407854Y-145636910D01*
X219397058Y-145632873D01*
X219370775Y-145614893D01*
X219350281Y-145587439D01*
X219344398Y-145575109D01*
X219343149Y-145571171D01*
X219342018Y-145565257D01*
X219341000Y-145556806D01*
X219340089Y-145545259D01*
X219339279Y-145530058D01*
X219338565Y-145510643D01*
X219337941Y-145486455D01*
X219337402Y-145456934D01*
X219336941Y-145421522D01*
X219336554Y-145379660D01*
X219336234Y-145330787D01*
X219335977Y-145274346D01*
X219335775Y-145209776D01*
X219335625Y-145136518D01*
X219335519Y-145054014D01*
X219335453Y-144961704D01*
X219335420Y-144859028D01*
X219335416Y-144745429D01*
X219335423Y-144684013D01*
X219335445Y-144565744D01*
X219335479Y-144458666D01*
X219335533Y-144362208D01*
X219335612Y-144275794D01*
X219335725Y-144198852D01*
X219335878Y-144130809D01*
X219336079Y-144071092D01*
X219336334Y-144019128D01*
X219336650Y-143974343D01*
X219337035Y-143936164D01*
X219337495Y-143904019D01*
X219338038Y-143877333D01*
X219338671Y-143855535D01*
X219339401Y-143838050D01*
X219340234Y-143824305D01*
X219341179Y-143813728D01*
X219342241Y-143805745D01*
X219343428Y-143799783D01*
X219344747Y-143795269D01*
X219346205Y-143791629D01*
X219346412Y-143791177D01*
X219365647Y-143761020D01*
X219390955Y-143740929D01*
X219422512Y-143730790D01*
X219441851Y-143729412D01*
X219471565Y-143734913D01*
G37*
G36*
X216429620Y-144829412D02*
G01*
X216442711Y-144790417D01*
X216461358Y-144746567D01*
X216483517Y-144701993D01*
X216507148Y-144660822D01*
X216528640Y-144629226D01*
X216555475Y-144596998D01*
X216588261Y-144562374D01*
X216624019Y-144528167D01*
X216659768Y-144497193D01*
X216692530Y-144472264D01*
X216700484Y-144466930D01*
X216774509Y-144425889D01*
X216852613Y-144395424D01*
X216933602Y-144375593D01*
X217016281Y-144366458D01*
X217099457Y-144368076D01*
X217181933Y-144380508D01*
X217262516Y-144403813D01*
X217334862Y-144435373D01*
X217408385Y-144479469D01*
X217474466Y-144531958D01*
X217532504Y-144591926D01*
X217581899Y-144658458D01*
X217622050Y-144730638D01*
X217652358Y-144807551D01*
X217672221Y-144888283D01*
X217680620Y-144962421D01*
X217681949Y-144991529D01*
X217682122Y-145011795D01*
X217680804Y-145026113D01*
X217677658Y-145037380D01*
X217672350Y-145048488D01*
X217670175Y-145052418D01*
X217656911Y-145070690D01*
X217640580Y-145086433D01*
X217635518Y-145089997D01*
X217614705Y-145102942D01*
X216624363Y-145108824D01*
X216643204Y-145158824D01*
X216673271Y-145222312D01*
X216712857Y-145279490D01*
X216761035Y-145329461D01*
X216816879Y-145371333D01*
X216879465Y-145404209D01*
X216908823Y-145415567D01*
X216928721Y-145422134D01*
X216946053Y-145426682D01*
X216963804Y-145429584D01*
X216984957Y-145431213D01*
X217012498Y-145431943D01*
X217041176Y-145432132D01*
X217077303Y-145431962D01*
X217104687Y-145431027D01*
X217126339Y-145429014D01*
X217145272Y-145425608D01*
X217164498Y-145420494D01*
X217170588Y-145418638D01*
X217218883Y-145400433D01*
X217264500Y-145376123D01*
X217310667Y-145343871D01*
X217331533Y-145327070D01*
X217358746Y-145305935D01*
X217381404Y-145291484D01*
X217397878Y-145284753D01*
X217398082Y-145284714D01*
X217434111Y-145282873D01*
X217465964Y-145290726D01*
X217492181Y-145307161D01*
X217511307Y-145331064D01*
X217521883Y-145361321D01*
X217523529Y-145380574D01*
X217522066Y-145403797D01*
X217516647Y-145423199D01*
X217505725Y-145441640D01*
X217487752Y-145461978D01*
X217470557Y-145478497D01*
X217405354Y-145530908D01*
X217333404Y-145573858D01*
X217255500Y-145606915D01*
X217207093Y-145621598D01*
X217163829Y-145630294D01*
X217113319Y-145636266D01*
X217059471Y-145639370D01*
X217006191Y-145639460D01*
X216957387Y-145636390D01*
X216926601Y-145632028D01*
X216845222Y-145610787D01*
X216767503Y-145578746D01*
X216694386Y-145536551D01*
X216626812Y-145484847D01*
X216565723Y-145424281D01*
X216512060Y-145355498D01*
X216502451Y-145341044D01*
X216465364Y-145273274D01*
X216437181Y-145199318D01*
X216418154Y-145120965D01*
X216408539Y-145040005D01*
X216408592Y-144958228D01*
X216415779Y-144900000D01*
X216627941Y-144900000D01*
X217046323Y-144900000D01*
X217115310Y-144899973D01*
X217180749Y-144899893D01*
X217241705Y-144899765D01*
X217297246Y-144899594D01*
X217346437Y-144899384D01*
X217388345Y-144899140D01*
X217422036Y-144898866D01*
X217446575Y-144898567D01*
X217461030Y-144898247D01*
X217464705Y-144897980D01*
X217462946Y-144891795D01*
X217458377Y-144877782D01*
X217453206Y-144862537D01*
X217425342Y-144798843D01*
X217388378Y-144741585D01*
X217343434Y-144691451D01*
X217291626Y-144649128D01*
X217234073Y-144615304D01*
X217171892Y-144590664D01*
X217106202Y-144575897D01*
X217038119Y-144571689D01*
X216986747Y-144575793D01*
X216920853Y-144589684D01*
X216861220Y-144612288D01*
X216806041Y-144644525D01*
X216753508Y-144687318D01*
X216737532Y-144702816D01*
X216712473Y-144729237D01*
X216693590Y-144752610D01*
X216677815Y-144777168D01*
X216662482Y-144806323D01*
X216650576Y-144831627D01*
X216640517Y-144855063D01*
X216633654Y-144873378D01*
X216631568Y-144880883D01*
X216627941Y-144900000D01*
X216415779Y-144900000D01*
X216418566Y-144877423D01*
X216429620Y-144829412D01*
G37*
G36*
X221616839Y-144371767D02*
G01*
X221696880Y-144387628D01*
X221774399Y-144413837D01*
X221848182Y-144450437D01*
X221875192Y-144467212D01*
X221944633Y-144519750D01*
X222005990Y-144580196D01*
X222058602Y-144647598D01*
X222101808Y-144721002D01*
X222134945Y-144799453D01*
X222154948Y-144870510D01*
X222157621Y-144883235D01*
X222159877Y-144895725D01*
X222161752Y-144909071D01*
X222163283Y-144924363D01*
X222164504Y-144942692D01*
X222165452Y-144965148D01*
X222166163Y-144992821D01*
X222166674Y-145026802D01*
X222167020Y-145068180D01*
X222167237Y-145118046D01*
X222167361Y-145177490D01*
X222167429Y-145247603D01*
X222167429Y-145248011D01*
X222167647Y-145569550D01*
X222150000Y-145594461D01*
X222125219Y-145620804D01*
X222095991Y-145636464D01*
X222065686Y-145641177D01*
X222031392Y-145635724D01*
X222001891Y-145619832D01*
X221983491Y-145601112D01*
X221967647Y-145580350D01*
X221964305Y-145259293D01*
X221963558Y-145189320D01*
X221962862Y-145130053D01*
X221962171Y-145080432D01*
X221961439Y-145039400D01*
X221960619Y-145005898D01*
X221959666Y-144978866D01*
X221958533Y-144957247D01*
X221957173Y-144939982D01*
X221955541Y-144926012D01*
X221953591Y-144914278D01*
X221951276Y-144903722D01*
X221948550Y-144893284D01*
X221948293Y-144892350D01*
X221924355Y-144826894D01*
X221890604Y-144766459D01*
X221848143Y-144712147D01*
X221798071Y-144665061D01*
X221741489Y-144626304D01*
X221679497Y-144596978D01*
X221641176Y-144584639D01*
X221609063Y-144578622D01*
X221569436Y-144575093D01*
X221526208Y-144574049D01*
X221483290Y-144575488D01*
X221444593Y-144579408D01*
X221417647Y-144584769D01*
X221352288Y-144608499D01*
X221292007Y-144642363D01*
X221237719Y-144685488D01*
X221190343Y-144737003D01*
X221150797Y-144796037D01*
X221119998Y-144861716D01*
X221116724Y-144870589D01*
X221113794Y-144878974D01*
X221111304Y-144887120D01*
X221109211Y-144896041D01*
X221107466Y-144906749D01*
X221106026Y-144920256D01*
X221104844Y-144937576D01*
X221103874Y-144959721D01*
X221103070Y-144987704D01*
X221102386Y-145022537D01*
X221101778Y-145065233D01*
X221101198Y-145116806D01*
X221100601Y-145178266D01*
X221100045Y-145239209D01*
X221097058Y-145569594D01*
X221079411Y-145594483D01*
X221064658Y-145611649D01*
X221047900Y-145626091D01*
X221041268Y-145630274D01*
X221014419Y-145638940D01*
X220983821Y-145640279D01*
X220954976Y-145634233D01*
X220948115Y-145631284D01*
X220931714Y-145620121D01*
X220915779Y-145604641D01*
X220912821Y-145600995D01*
X220897058Y-145580331D01*
X220895412Y-145015166D01*
X220895211Y-144934382D01*
X220895083Y-144856774D01*
X220895027Y-144783174D01*
X220895039Y-144714408D01*
X220895119Y-144651306D01*
X220895262Y-144594697D01*
X220895468Y-144545411D01*
X220895733Y-144504275D01*
X220896056Y-144472120D01*
X220896434Y-144449774D01*
X220896865Y-144438066D01*
X220897032Y-144436617D01*
X220902786Y-144424621D01*
X220913847Y-144408847D01*
X220921371Y-144399908D01*
X220947328Y-144378930D01*
X220976850Y-144367912D01*
X221007613Y-144367030D01*
X221037294Y-144376460D01*
X221056658Y-144389706D01*
X221074921Y-144408540D01*
X221087078Y-144429013D01*
X221094653Y-144454567D01*
X221098833Y-144484973D01*
X221102941Y-144528175D01*
X221151469Y-144491636D01*
X221221199Y-144446263D01*
X221295678Y-144410993D01*
X221373693Y-144385868D01*
X221454033Y-144370928D01*
X221535486Y-144366214D01*
X221616839Y-144371767D01*
G37*
G36*
X215646540Y-143864163D02*
G01*
X215674615Y-143879725D01*
X215696148Y-143904827D01*
X215699982Y-143911731D01*
X215703060Y-143918307D01*
X215705551Y-143925571D01*
X215707517Y-143934772D01*
X215709019Y-143947161D01*
X215710119Y-143963987D01*
X215710880Y-143986500D01*
X215711363Y-144015950D01*
X215711630Y-144053588D01*
X215711743Y-144100663D01*
X215711764Y-144149766D01*
X215711764Y-144364706D01*
X215860294Y-144364835D01*
X215911077Y-144365041D01*
X215951592Y-144365731D01*
X215983334Y-144367163D01*
X216007798Y-144369594D01*
X216026478Y-144373281D01*
X216040869Y-144378481D01*
X216052466Y-144385451D01*
X216062762Y-144394449D01*
X216068725Y-144400695D01*
X216086001Y-144427542D01*
X216093520Y-144457745D01*
X216091709Y-144488769D01*
X216080994Y-144518075D01*
X216061800Y-144543128D01*
X216042422Y-144557416D01*
X216034876Y-144561406D01*
X216027144Y-144564497D01*
X216017684Y-144566804D01*
X216004956Y-144568441D01*
X215987420Y-144569523D01*
X215963534Y-144570164D01*
X215931757Y-144570478D01*
X215890550Y-144570581D01*
X215865164Y-144570589D01*
X215711342Y-144570589D01*
X215713024Y-144936765D01*
X215714705Y-145302942D01*
X215731118Y-145336363D01*
X215754443Y-145372663D01*
X215785896Y-145401943D01*
X215813398Y-145419040D01*
X215828394Y-145425827D01*
X215844431Y-145429879D01*
X215865186Y-145431823D01*
X215891176Y-145432289D01*
X215921260Y-145431490D01*
X215944608Y-145428156D01*
X215964961Y-145420922D01*
X215986062Y-145408420D01*
X216011653Y-145389285D01*
X216013966Y-145387459D01*
X216048080Y-145366193D01*
X216081830Y-145356594D01*
X216115019Y-145358680D01*
X216147449Y-145372469D01*
X216150835Y-145374618D01*
X216171622Y-145394835D01*
X216185472Y-145422017D01*
X216191266Y-145452901D01*
X216188126Y-145483332D01*
X216176840Y-145507165D01*
X216156097Y-145532654D01*
X216127784Y-145558341D01*
X216093789Y-145582770D01*
X216056002Y-145604486D01*
X216016310Y-145622033D01*
X216001646Y-145627136D01*
X215977853Y-145632392D01*
X215945973Y-145636179D01*
X215909599Y-145638397D01*
X215872329Y-145638948D01*
X215837758Y-145637732D01*
X215809482Y-145634651D01*
X215800000Y-145632688D01*
X215739899Y-145611636D01*
X215684182Y-145580947D01*
X215634064Y-145541901D01*
X215590759Y-145495776D01*
X215555485Y-145443853D01*
X215529455Y-145387410D01*
X215514675Y-145332347D01*
X215513341Y-145323157D01*
X215512148Y-145310965D01*
X215511091Y-145295132D01*
X215510159Y-145275023D01*
X215509347Y-145249999D01*
X215508646Y-145219424D01*
X215508048Y-145182660D01*
X215507547Y-145139070D01*
X215507133Y-145088017D01*
X215506801Y-145028864D01*
X215506541Y-144960973D01*
X215506347Y-144883708D01*
X215506210Y-144796430D01*
X215506124Y-144698504D01*
X215506087Y-144617609D01*
X215506105Y-144508712D01*
X215506227Y-144408059D01*
X215506449Y-144315995D01*
X215506769Y-144232869D01*
X215507184Y-144159027D01*
X215507691Y-144094818D01*
X215508288Y-144040587D01*
X215508971Y-143996684D01*
X215509738Y-143963454D01*
X215510586Y-143941245D01*
X215511513Y-143930406D01*
X215511648Y-143929816D01*
X215523067Y-143906618D01*
X215542056Y-143884460D01*
X215564887Y-143867652D01*
X215565884Y-143867122D01*
X215581104Y-143862273D01*
X215601920Y-143859284D01*
X215613048Y-143858824D01*
X215646540Y-143864163D01*
G37*
G36*
X224450587Y-144861910D02*
G01*
X224473777Y-144781808D01*
X224507865Y-144706111D01*
X224552816Y-144634917D01*
X224608590Y-144568320D01*
X224626973Y-144549696D01*
X224693426Y-144492637D01*
X224765117Y-144445901D01*
X224841293Y-144409684D01*
X224921199Y-144384186D01*
X225004080Y-144369604D01*
X225089181Y-144366138D01*
X225175749Y-144373985D01*
X225242845Y-144387840D01*
X225315684Y-144412439D01*
X225386039Y-144447527D01*
X225452603Y-144491889D01*
X225514068Y-144544307D01*
X225569126Y-144603566D01*
X225616468Y-144668448D01*
X225654787Y-144737739D01*
X225676579Y-144791177D01*
X225697189Y-144867223D01*
X225708417Y-144947727D01*
X225710248Y-145030030D01*
X225702667Y-145111472D01*
X225685659Y-145189394D01*
X225678884Y-145211185D01*
X225647921Y-145285736D01*
X225606784Y-145355949D01*
X225556590Y-145420788D01*
X225498459Y-145479217D01*
X225433507Y-145530200D01*
X225362854Y-145572699D01*
X225287616Y-145605679D01*
X225235993Y-145621728D01*
X225193666Y-145630236D01*
X225144049Y-145636137D01*
X225091006Y-145639285D01*
X225038399Y-145639536D01*
X224990093Y-145636745D01*
X224956795Y-145632160D01*
X224872819Y-145610537D01*
X224794067Y-145578375D01*
X224720567Y-145535689D01*
X224652349Y-145482495D01*
X224606072Y-145437221D01*
X224550995Y-145370707D01*
X224507031Y-145300765D01*
X224473890Y-145226700D01*
X224451279Y-145147818D01*
X224438907Y-145063426D01*
X224437054Y-145034952D01*
X224437853Y-144979653D01*
X224642840Y-144979653D01*
X224643850Y-145050116D01*
X224655153Y-145115691D01*
X224677122Y-145177819D01*
X224709804Y-145237434D01*
X224753777Y-145295067D01*
X224805043Y-145343552D01*
X224863140Y-145382561D01*
X224927604Y-145411770D01*
X224979411Y-145426947D01*
X225015303Y-145432286D01*
X225058368Y-145434126D01*
X225104609Y-145432663D01*
X225150031Y-145428097D01*
X225190639Y-145420626D01*
X225208823Y-145415563D01*
X225270903Y-145389987D01*
X225326853Y-145355138D01*
X225370750Y-145317647D01*
X225419325Y-145263027D01*
X225457168Y-145203746D01*
X225484134Y-145140170D01*
X225500079Y-145072662D01*
X225504861Y-145001586D01*
X225504091Y-144979519D01*
X225496341Y-144913958D01*
X225480530Y-144855074D01*
X225455747Y-144800862D01*
X225421078Y-144749317D01*
X225376675Y-144699498D01*
X225350291Y-144673708D01*
X225328590Y-144654574D01*
X225308591Y-144639826D01*
X225287316Y-144627193D01*
X225270588Y-144618646D01*
X225228140Y-144599528D01*
X225189813Y-144586471D01*
X225151397Y-144578524D01*
X225108682Y-144574733D01*
X225073529Y-144574043D01*
X225025223Y-144575466D01*
X224984197Y-144580371D01*
X224946242Y-144589710D01*
X224907148Y-144604436D01*
X224876470Y-144618646D01*
X224852622Y-144631139D01*
X224832079Y-144644201D01*
X224811860Y-144660104D01*
X224788987Y-144681118D01*
X224770383Y-144699498D01*
X224724936Y-144750652D01*
X224690321Y-144802544D01*
X224665663Y-144857094D01*
X224650089Y-144916221D01*
X224642840Y-144979653D01*
X224437853Y-144979653D01*
X224438334Y-144946323D01*
X224450587Y-144861910D01*
G37*
D12*
%TO.C,C1*%
X215510000Y-149859420D02*
X215510000Y-150140580D01*
X214490000Y-149859420D02*
X214490000Y-150140580D01*
%TD*%
M02*
