%TF.GenerationSoftware,KiCad,Pcbnew,(6.0.0)*%
%TF.CreationDate,2022-07-31T16:52:29+12:00*%
%TF.ProjectId,MOTOR_TERMINAL_BREAKOUT_25,4d4f544f-525f-4544-9552-4d494e414c5f,0A*%
%TF.SameCoordinates,Original*%
%TF.FileFunction,Legend,Top*%
%TF.FilePolarity,Positive*%
%FSLAX46Y46*%
G04 Gerber Fmt 4.6, Leading zero omitted, Abs format (unit mm)*
G04 Created by KiCad (PCBNEW (6.0.0)) date 2022-07-31 16:52:29*
%MOMM*%
%LPD*%
G01*
G04 APERTURE LIST*
%ADD10C,0.200000*%
%ADD11C,0.150000*%
G04 APERTURE END LIST*
D10*
X212014285Y-139438357D02*
X212057142Y-139395500D01*
X212142857Y-139352642D01*
X212357142Y-139352642D01*
X212442857Y-139395500D01*
X212485714Y-139438357D01*
X212528571Y-139524071D01*
X212528571Y-139609785D01*
X212485714Y-139738357D01*
X211971428Y-140252642D01*
X212528571Y-140252642D01*
X213342857Y-139352642D02*
X212914285Y-139352642D01*
X212871428Y-139781214D01*
X212914285Y-139738357D01*
X213000000Y-139695500D01*
X213214285Y-139695500D01*
X213300000Y-139738357D01*
X213342857Y-139781214D01*
X213385714Y-139866928D01*
X213385714Y-140081214D01*
X213342857Y-140166928D01*
X213300000Y-140209785D01*
X213214285Y-140252642D01*
X213000000Y-140252642D01*
X212914285Y-140209785D01*
X212871428Y-140166928D01*
X213771428Y-140252642D02*
X213771428Y-139652642D01*
X213771428Y-139738357D02*
X213814285Y-139695500D01*
X213900000Y-139652642D01*
X214028571Y-139652642D01*
X214114285Y-139695500D01*
X214157142Y-139781214D01*
X214157142Y-140252642D01*
X214157142Y-139781214D02*
X214200000Y-139695500D01*
X214285714Y-139652642D01*
X214414285Y-139652642D01*
X214500000Y-139695500D01*
X214542857Y-139781214D01*
X214542857Y-140252642D01*
X214971428Y-140252642D02*
X214971428Y-139652642D01*
X214971428Y-139738357D02*
X215014285Y-139695500D01*
X215100000Y-139652642D01*
X215228571Y-139652642D01*
X215314285Y-139695500D01*
X215357142Y-139781214D01*
X215357142Y-140252642D01*
X215357142Y-139781214D02*
X215400000Y-139695500D01*
X215485714Y-139652642D01*
X215614285Y-139652642D01*
X215700000Y-139695500D01*
X215742857Y-139781214D01*
X215742857Y-140252642D01*
X212614285Y-141101642D02*
X212828571Y-141701642D01*
X213042857Y-141101642D01*
X213857142Y-141701642D02*
X213342857Y-141701642D01*
X213600000Y-141701642D02*
X213600000Y-140801642D01*
X213514285Y-140930214D01*
X213428571Y-141015928D01*
X213342857Y-141058785D01*
X214242857Y-141615928D02*
X214285714Y-141658785D01*
X214242857Y-141701642D01*
X214200000Y-141658785D01*
X214242857Y-141615928D01*
X214242857Y-141701642D01*
X214842857Y-140801642D02*
X214928571Y-140801642D01*
X215014285Y-140844500D01*
X215057142Y-140887357D01*
X215100000Y-140973071D01*
X215142857Y-141144500D01*
X215142857Y-141358785D01*
X215100000Y-141530214D01*
X215057142Y-141615928D01*
X215014285Y-141658785D01*
X214928571Y-141701642D01*
X214842857Y-141701642D01*
X214757142Y-141658785D01*
X214714285Y-141615928D01*
X214671428Y-141530214D01*
X214628571Y-141358785D01*
X214628571Y-141144500D01*
X214671428Y-140973071D01*
X214714285Y-140887357D01*
X214757142Y-140844500D01*
X214842857Y-140801642D01*
D11*
%TO.C,C1*%
X220140580Y-145210000D02*
X219859420Y-145210000D01*
X220140580Y-144190000D02*
X219859420Y-144190000D01*
%TD*%
M02*
