M48
; DRILL file {KiCad (6.0.0)} date Sun Jul 17 22:10:54 2022
; FORMAT={-:-/ absolute / metric / decimal}
; #@! TF.CreationDate,2022-07-17T22:10:54+12:00
; #@! TF.GenerationSoftware,Kicad,Pcbnew,(6.0.0)
; #@! TF.FileFunction,Plated,1,2,PTH
FMAT,2
METRIC
; #@! TA.AperFunction,Plated,PTH,ViaDrill
T1C0.250
; #@! TA.AperFunction,Plated,PTH,ComponentDrill
T2C1.500
; #@! TA.AperFunction,Plated,PTH,ComponentDrill
T3C3.200
%
G90
G05
T1
X202.75Y-140.25
X202.75Y-145.75
X202.75Y-154.25
X202.75Y-159.75
X203.0Y-143.0
X203.0Y-157.0
X203.75Y-141.25
X203.75Y-144.75
X203.75Y-155.25
X203.75Y-158.75
X205.5Y-140.5
X205.5Y-145.5
X205.5Y-154.5
X205.5Y-159.5
X207.0Y-155.0
X207.0Y-159.0
X207.25Y-141.25
X207.25Y-144.75
X208.0Y-143.0
X208.0Y-157.0
X214.0Y-149.25
X214.0Y-150.75
X215.0Y-148.25
X215.0Y-151.75
X216.0Y-149.25
X216.0Y-150.75
T3
X205.5Y-143.0
X205.5Y-157.0
T2
G00X210.25Y-150.0
M15
G01X211.75Y-150.0
M16
G05
G00X220.0Y-140.25
M15
G01X220.0Y-141.75
M16
G05
G00X220.0Y-158.25
M15
G01X220.0Y-159.75
M16
G05
G00X228.25Y-150.0
M15
G01X229.75Y-150.0
M16
G05
T0
M30
