%TF.GenerationSoftware,KiCad,Pcbnew,7.0.10*%
%TF.CreationDate,2024-04-17T21:09:22+12:00*%
%TF.ProjectId,MOTOR_TERMINAL_BREAKOUT_25mm,4d4f544f-525f-4544-9552-4d494e414c5f,v1.2*%
%TF.SameCoordinates,Original*%
%TF.FileFunction,Legend,Top*%
%TF.FilePolarity,Positive*%
%FSLAX46Y46*%
G04 Gerber Fmt 4.6, Leading zero omitted, Abs format (unit mm)*
G04 Created by KiCad (PCBNEW 7.0.10) date 2024-04-17 21:09:22*
%MOMM*%
%LPD*%
G01*
G04 APERTURE LIST*
G04 Aperture macros list*
%AMRoundRect*
0 Rectangle with rounded corners*
0 $1 Rounding radius*
0 $2 $3 $4 $5 $6 $7 $8 $9 X,Y pos of 4 corners*
0 Add a 4 corners polygon primitive as box body*
4,1,4,$2,$3,$4,$5,$6,$7,$8,$9,$2,$3,0*
0 Add four circle primitives for the rounded corners*
1,1,$1+$1,$2,$3*
1,1,$1+$1,$4,$5*
1,1,$1+$1,$6,$7*
1,1,$1+$1,$8,$9*
0 Add four rect primitives between the rounded corners*
20,1,$1+$1,$2,$3,$4,$5,0*
20,1,$1+$1,$4,$5,$6,$7,0*
20,1,$1+$1,$6,$7,$8,$9,0*
20,1,$1+$1,$8,$9,$2,$3,0*%
%AMHorizOval*
0 Thick line with rounded ends*
0 $1 width*
0 $2 $3 position (X,Y) of the first rounded end (center of the circle)*
0 $4 $5 position (X,Y) of the second rounded end (center of the circle)*
0 Add line between two ends*
20,1,$1,$2,$3,$4,$5,0*
0 Add two circle primitives to create the rounded ends*
1,1,$1,$2,$3*
1,1,$1,$4,$5*%
G04 Aperture macros list end*
%ADD10C,0.200000*%
%ADD11C,0.150000*%
%ADD12C,1.249999*%
%ADD13C,1.250000*%
%ADD14RoundRect,0.225000X-0.225000X-0.250000X0.225000X-0.250000X0.225000X0.250000X-0.225000X0.250000X0*%
%ADD15R,4.000000X5.000000*%
%ADD16HorizOval,1.500000X0.611573X0.434141X-0.611573X-0.434141X0*%
%ADD17HorizOval,1.500000X-0.434141X0.611573X0.434141X-0.611573X0*%
%ADD18HorizOval,1.500000X-0.739497X0.125077X0.739497X-0.125077X0*%
%ADD19HorizOval,1.500000X0.125077X0.739497X-0.125077X-0.739497X0*%
G04 APERTURE END LIST*
D10*
X210014285Y-144237171D02*
X210057142Y-144194314D01*
X210057142Y-144194314D02*
X210142857Y-144151457D01*
X210142857Y-144151457D02*
X210357142Y-144151457D01*
X210357142Y-144151457D02*
X210442857Y-144194314D01*
X210442857Y-144194314D02*
X210485714Y-144237171D01*
X210485714Y-144237171D02*
X210528571Y-144322885D01*
X210528571Y-144322885D02*
X210528571Y-144408600D01*
X210528571Y-144408600D02*
X210485714Y-144537171D01*
X210485714Y-144537171D02*
X209971428Y-145051457D01*
X209971428Y-145051457D02*
X210528571Y-145051457D01*
X211342857Y-144151457D02*
X210914285Y-144151457D01*
X210914285Y-144151457D02*
X210871428Y-144580028D01*
X210871428Y-144580028D02*
X210914285Y-144537171D01*
X210914285Y-144537171D02*
X211000000Y-144494314D01*
X211000000Y-144494314D02*
X211214285Y-144494314D01*
X211214285Y-144494314D02*
X211300000Y-144537171D01*
X211300000Y-144537171D02*
X211342857Y-144580028D01*
X211342857Y-144580028D02*
X211385714Y-144665742D01*
X211385714Y-144665742D02*
X211385714Y-144880028D01*
X211385714Y-144880028D02*
X211342857Y-144965742D01*
X211342857Y-144965742D02*
X211300000Y-145008600D01*
X211300000Y-145008600D02*
X211214285Y-145051457D01*
X211214285Y-145051457D02*
X211000000Y-145051457D01*
X211000000Y-145051457D02*
X210914285Y-145008600D01*
X210914285Y-145008600D02*
X210871428Y-144965742D01*
X211771428Y-145051457D02*
X211771428Y-144451457D01*
X211771428Y-144537171D02*
X211814285Y-144494314D01*
X211814285Y-144494314D02*
X211900000Y-144451457D01*
X211900000Y-144451457D02*
X212028571Y-144451457D01*
X212028571Y-144451457D02*
X212114285Y-144494314D01*
X212114285Y-144494314D02*
X212157143Y-144580028D01*
X212157143Y-144580028D02*
X212157143Y-145051457D01*
X212157143Y-144580028D02*
X212200000Y-144494314D01*
X212200000Y-144494314D02*
X212285714Y-144451457D01*
X212285714Y-144451457D02*
X212414285Y-144451457D01*
X212414285Y-144451457D02*
X212500000Y-144494314D01*
X212500000Y-144494314D02*
X212542857Y-144580028D01*
X212542857Y-144580028D02*
X212542857Y-145051457D01*
X212971428Y-145051457D02*
X212971428Y-144451457D01*
X212971428Y-144537171D02*
X213014285Y-144494314D01*
X213014285Y-144494314D02*
X213100000Y-144451457D01*
X213100000Y-144451457D02*
X213228571Y-144451457D01*
X213228571Y-144451457D02*
X213314285Y-144494314D01*
X213314285Y-144494314D02*
X213357143Y-144580028D01*
X213357143Y-144580028D02*
X213357143Y-145051457D01*
X213357143Y-144580028D02*
X213400000Y-144494314D01*
X213400000Y-144494314D02*
X213485714Y-144451457D01*
X213485714Y-144451457D02*
X213614285Y-144451457D01*
X213614285Y-144451457D02*
X213700000Y-144494314D01*
X213700000Y-144494314D02*
X213742857Y-144580028D01*
X213742857Y-144580028D02*
X213742857Y-145051457D01*
X210614286Y-145900457D02*
X210828572Y-146500457D01*
X210828572Y-146500457D02*
X211042857Y-145900457D01*
X211857143Y-146500457D02*
X211342857Y-146500457D01*
X211600000Y-146500457D02*
X211600000Y-145600457D01*
X211600000Y-145600457D02*
X211514286Y-145729028D01*
X211514286Y-145729028D02*
X211428571Y-145814742D01*
X211428571Y-145814742D02*
X211342857Y-145857600D01*
X212242857Y-146414742D02*
X212285714Y-146457600D01*
X212285714Y-146457600D02*
X212242857Y-146500457D01*
X212242857Y-146500457D02*
X212200000Y-146457600D01*
X212200000Y-146457600D02*
X212242857Y-146414742D01*
X212242857Y-146414742D02*
X212242857Y-146500457D01*
X212628571Y-145686171D02*
X212671428Y-145643314D01*
X212671428Y-145643314D02*
X212757143Y-145600457D01*
X212757143Y-145600457D02*
X212971428Y-145600457D01*
X212971428Y-145600457D02*
X213057143Y-145643314D01*
X213057143Y-145643314D02*
X213100000Y-145686171D01*
X213100000Y-145686171D02*
X213142857Y-145771885D01*
X213142857Y-145771885D02*
X213142857Y-145857600D01*
X213142857Y-145857600D02*
X213100000Y-145986171D01*
X213100000Y-145986171D02*
X212585714Y-146500457D01*
X212585714Y-146500457D02*
X213142857Y-146500457D01*
D11*
%TO.C,C2*%
X219859420Y-144490000D02*
X220140580Y-144490000D01*
X219859420Y-145510000D02*
X220140580Y-145510000D01*
%TD*%
%LPC*%
%TO.C,M6*%
G36*
X226004859Y-144204852D02*
G01*
X227228005Y-143336571D01*
X228675141Y-145375148D01*
X227451995Y-146243429D01*
X226004859Y-144204852D01*
G37*
D12*
X227353426Y-145224141D02*
G75*
G03*
X226103428Y-145224141I-624999J0D01*
G01*
X226103428Y-145224141D02*
G75*
G03*
X227353426Y-145224141I624999J0D01*
G01*
D13*
X228576573Y-144355859D02*
G75*
G03*
X227326573Y-144355859I-625000J0D01*
G01*
X227326573Y-144355859D02*
G75*
G03*
X228576573Y-144355859I625000J0D01*
G01*
%TO.C,M3*%
G36*
X214204852Y-143995141D02*
G01*
X213336571Y-142771995D01*
X215375148Y-141324859D01*
X216243429Y-142548005D01*
X214204852Y-143995141D01*
G37*
D12*
X215849140Y-143271573D02*
G75*
G03*
X214599142Y-143271573I-624999J0D01*
G01*
X214599142Y-143271573D02*
G75*
G03*
X215849140Y-143271573I624999J0D01*
G01*
D13*
X214980859Y-142048427D02*
G75*
G03*
X213730859Y-142048427I-625000J0D01*
G01*
X213730859Y-142048427D02*
G75*
G03*
X214980859Y-142048427I625000J0D01*
G01*
%TO.C,M2*%
G36*
X211661036Y-149857572D02*
G01*
X210182042Y-149607418D01*
X210598964Y-147142428D01*
X212077958Y-147392582D01*
X211661036Y-149857572D01*
G37*
X212494497Y-148625077D02*
G75*
G03*
X211244497Y-148625077I-625000J0D01*
G01*
X211244497Y-148625077D02*
G75*
G03*
X212494497Y-148625077I625000J0D01*
G01*
X211015503Y-148374923D02*
G75*
G03*
X209765503Y-148374923I-625000J0D01*
G01*
X209765503Y-148374923D02*
G75*
G03*
X211015503Y-148374923I625000J0D01*
G01*
%TO.C,M4*%
G36*
X211234859Y-154624852D02*
G01*
X212458005Y-153756571D01*
X213905141Y-155795148D01*
X212681995Y-156663429D01*
X211234859Y-154624852D01*
G37*
D12*
X212583426Y-155644141D02*
G75*
G03*
X211333428Y-155644141I-624999J0D01*
G01*
X211333428Y-155644141D02*
G75*
G03*
X212583426Y-155644141I624999J0D01*
G01*
D13*
X213806573Y-154775859D02*
G75*
G03*
X212556573Y-154775859I-625000J0D01*
G01*
X212556573Y-154775859D02*
G75*
G03*
X213806573Y-154775859I625000J0D01*
G01*
%TO.C,M5*%
G36*
X224624852Y-158675141D02*
G01*
X223756571Y-157451995D01*
X225795148Y-156004859D01*
X226663429Y-157228005D01*
X224624852Y-158675141D01*
G37*
D12*
X226269140Y-157951573D02*
G75*
G03*
X225019142Y-157951573I-624999J0D01*
G01*
X225019142Y-157951573D02*
G75*
G03*
X226269140Y-157951573I624999J0D01*
G01*
D13*
X225400859Y-156728427D02*
G75*
G03*
X224150859Y-156728427I-625000J0D01*
G01*
X224150859Y-156728427D02*
G75*
G03*
X225400859Y-156728427I625000J0D01*
G01*
%TO.C,M1*%
G36*
X220142428Y-141661036D02*
G01*
X220392582Y-140182042D01*
X222857572Y-140598964D01*
X222607418Y-142077958D01*
X220142428Y-141661036D01*
G37*
X221999923Y-141869497D02*
G75*
G03*
X220749923Y-141869497I-625000J0D01*
G01*
X220749923Y-141869497D02*
G75*
G03*
X221999923Y-141869497I625000J0D01*
G01*
X222250077Y-140390503D02*
G75*
G03*
X221000077Y-140390503I-625000J0D01*
G01*
X221000077Y-140390503D02*
G75*
G03*
X222250077Y-140390503I625000J0D01*
G01*
%TO.C,M7*%
G36*
X217142428Y-159401036D02*
G01*
X217392582Y-157922042D01*
X219857572Y-158338964D01*
X219607418Y-159817958D01*
X217142428Y-159401036D01*
G37*
X218999923Y-159609497D02*
G75*
G03*
X217749923Y-159609497I-625000J0D01*
G01*
X217749923Y-159609497D02*
G75*
G03*
X218999923Y-159609497I625000J0D01*
G01*
X219250077Y-158130503D02*
G75*
G03*
X218000077Y-158130503I-625000J0D01*
G01*
X218000077Y-158130503D02*
G75*
G03*
X219250077Y-158130503I625000J0D01*
G01*
%TO.C,M8*%
G36*
X229401036Y-152857572D02*
G01*
X227922042Y-152607418D01*
X228338964Y-150142428D01*
X229817958Y-150392582D01*
X229401036Y-152857572D01*
G37*
X230234497Y-151625077D02*
G75*
G03*
X228984497Y-151625077I-625000J0D01*
G01*
X228984497Y-151625077D02*
G75*
G03*
X230234497Y-151625077I625000J0D01*
G01*
X228755503Y-151374923D02*
G75*
G03*
X227505503Y-151374923I-625000J0D01*
G01*
X227505503Y-151374923D02*
G75*
G03*
X228755503Y-151374923I625000J0D01*
G01*
%TD*%
D14*
%TO.C,C2*%
X219225000Y-145000000D03*
X220775000Y-145000000D03*
%TD*%
D15*
%TO.C,N2*%
X223000000Y-134500000D03*
%TD*%
D16*
%TO.C,M6*%
X227340000Y-144790000D03*
%TD*%
D15*
%TO.C,N1*%
X217000000Y-134500000D03*
%TD*%
D17*
%TO.C,M3*%
X214790000Y-142660000D03*
%TD*%
D18*
%TO.C,M2*%
X211130000Y-148500000D03*
%TD*%
D16*
%TO.C,M4*%
X212570000Y-155210000D03*
%TD*%
D17*
%TO.C,M5*%
X225210000Y-157340000D03*
%TD*%
D19*
%TO.C,M1*%
X221500000Y-141130000D03*
%TD*%
%TO.C,M7*%
X218500000Y-158870000D03*
%TD*%
D18*
%TO.C,M8*%
X228870000Y-151500000D03*
%TD*%
%LPD*%
M02*
