%TF.GenerationSoftware,KiCad,Pcbnew,(6.0.0)*%
%TF.CreationDate,2022-08-20T16:14:09+12:00*%
%TF.ProjectId,MOTOR_TERMINAL_BREAKOUT_25,4d4f544f-525f-4544-9552-4d494e414c5f,0A*%
%TF.SameCoordinates,Original*%
%TF.FileFunction,Legend,Top*%
%TF.FilePolarity,Positive*%
%FSLAX46Y46*%
G04 Gerber Fmt 4.6, Leading zero omitted, Abs format (unit mm)*
G04 Created by KiCad (PCBNEW (6.0.0)) date 2022-08-20 16:14:09*
%MOMM*%
%LPD*%
G01*
G04 APERTURE LIST*
%ADD10C,0.200000*%
%ADD11C,0.150000*%
G04 APERTURE END LIST*
D10*
X224214285Y-139438357D02*
X224257142Y-139395500D01*
X224342857Y-139352642D01*
X224557142Y-139352642D01*
X224642857Y-139395500D01*
X224685714Y-139438357D01*
X224728571Y-139524071D01*
X224728571Y-139609785D01*
X224685714Y-139738357D01*
X224171428Y-140252642D01*
X224728571Y-140252642D01*
X225542857Y-139352642D02*
X225114285Y-139352642D01*
X225071428Y-139781214D01*
X225114285Y-139738357D01*
X225200000Y-139695500D01*
X225414285Y-139695500D01*
X225500000Y-139738357D01*
X225542857Y-139781214D01*
X225585714Y-139866928D01*
X225585714Y-140081214D01*
X225542857Y-140166928D01*
X225500000Y-140209785D01*
X225414285Y-140252642D01*
X225200000Y-140252642D01*
X225114285Y-140209785D01*
X225071428Y-140166928D01*
X225971428Y-140252642D02*
X225971428Y-139652642D01*
X225971428Y-139738357D02*
X226014285Y-139695500D01*
X226100000Y-139652642D01*
X226228571Y-139652642D01*
X226314285Y-139695500D01*
X226357142Y-139781214D01*
X226357142Y-140252642D01*
X226357142Y-139781214D02*
X226400000Y-139695500D01*
X226485714Y-139652642D01*
X226614285Y-139652642D01*
X226700000Y-139695500D01*
X226742857Y-139781214D01*
X226742857Y-140252642D01*
X227171428Y-140252642D02*
X227171428Y-139652642D01*
X227171428Y-139738357D02*
X227214285Y-139695500D01*
X227300000Y-139652642D01*
X227428571Y-139652642D01*
X227514285Y-139695500D01*
X227557142Y-139781214D01*
X227557142Y-140252642D01*
X227557142Y-139781214D02*
X227600000Y-139695500D01*
X227685714Y-139652642D01*
X227814285Y-139652642D01*
X227900000Y-139695500D01*
X227942857Y-139781214D01*
X227942857Y-140252642D01*
X224814285Y-141101642D02*
X225028571Y-141701642D01*
X225242857Y-141101642D01*
X226057142Y-141701642D02*
X225542857Y-141701642D01*
X225800000Y-141701642D02*
X225800000Y-140801642D01*
X225714285Y-140930214D01*
X225628571Y-141015928D01*
X225542857Y-141058785D01*
X226442857Y-141615928D02*
X226485714Y-141658785D01*
X226442857Y-141701642D01*
X226400000Y-141658785D01*
X226442857Y-141615928D01*
X226442857Y-141701642D01*
X227342857Y-141701642D02*
X226828571Y-141701642D01*
X227085714Y-141701642D02*
X227085714Y-140801642D01*
X227000000Y-140930214D01*
X226914285Y-141015928D01*
X226828571Y-141058785D01*
D11*
%TO.C,C1*%
X219859420Y-144190000D02*
X220140580Y-144190000D01*
X219859420Y-145210000D02*
X220140580Y-145210000D01*
%TD*%
M02*
